<?xml version="1.0" encoding="utf-8"?>
<!-- Generator: Adobe Illustrator 16.0.0, SVG Export Plug-In . SVG Version: 6.00 Build 0)  -->
<!DOCTYPE svg PUBLIC "-//W3C//DTD SVG 1.1//EN" "http://www.w3.org/Graphics/SVG/1.1/DTD/svg11.dtd">
<svg version="1.1" id="Layer_1" xmlns="http://www.w3.org/2000/svg" xmlns:xlink="http://www.w3.org/1999/xlink" x="0px" y="0px"
	 width="30px" height="21px" viewBox="0 0 30 21" enable-background="new 0 0 30 21" xml:space="preserve">
<g>
	<rect fill="#FFFFFF" width="30" height="21"/>
	<g>
		<circle fill="#231F20" cx="0.461" cy="0.035" r="0.019"/>
		<circle fill="#231F20" cx="1.158" cy="0.035" r="0.029"/>
		<path fill="#231F20" d="M1.855,0.075c0.022,0,0.041-0.018,0.041-0.041c0-0.019-0.017-0.03-0.035-0.035H1.85
			C1.832,0.004,1.815,0.016,1.815,0.035C1.815,0.057,1.833,0.075,1.855,0.075z"/>
		<path fill="#231F20" d="M2.553,0.087c0.029,0,0.052-0.023,0.052-0.052C2.605,0.016,2.586,0.009,2.57,0H2.535
			C2.52,0.009,2.5,0.016,2.5,0.035C2.5,0.063,2.524,0.087,2.553,0.087z"/>
		<path fill="#231F20" d="M3.25,0.101c0.036,0,0.065-0.03,0.065-0.066c0-0.019-0.021-0.022-0.035-0.035H3.219
			C3.206,0.012,3.185,0.016,3.185,0.035C3.185,0.071,3.214,0.101,3.25,0.101z"/>
		<path fill="#231F20" d="M3.948,0.112c0.043,0,0.077-0.034,0.077-0.077C4.025,0.016,4.002,0.014,3.99,0H3.905
			C3.894,0.014,3.871,0.016,3.871,0.035C3.871,0.078,3.905,0.112,3.948,0.112z"/>
		<path fill="#231F20" d="M4.645,0.124c0.049,0,0.089-0.04,0.089-0.089C4.734,0.021,4.725,0.012,4.72,0H4.571
			C4.565,0.012,4.556,0.021,4.556,0.035C4.556,0.084,4.596,0.124,4.645,0.124z"/>
		<path fill="#231F20" d="M5.343,0.137c0.057,0,0.103-0.046,0.103-0.103c0-0.014-0.01-0.023-0.015-0.035H5.254
			C5.25,0.012,5.24,0.021,5.24,0.035C5.24,0.091,5.286,0.137,5.343,0.137z"/>
		<path fill="#231F20" d="M6.04,0.151c0.064,0,0.116-0.052,0.116-0.116c0-0.014-0.01-0.022-0.015-0.035H5.938
			C5.934,0.012,5.924,0.021,5.924,0.035C5.924,0.099,5.976,0.151,6.04,0.151z"/>
		<path fill="#231F20" d="M6.737,0.164c0.072,0,0.13-0.058,0.13-0.129c0-0.014-0.011-0.022-0.015-0.035h-0.23
			C6.619,0.012,6.608,0.021,6.608,0.035C6.608,0.106,6.666,0.164,6.737,0.164z"/>
		<path fill="#231F20" d="M7.435,0.178c0.079,0,0.143-0.064,0.143-0.143c0-0.014-0.011-0.022-0.015-0.035H7.306
			C7.303,0.012,7.292,0.021,7.292,0.035C7.292,0.114,7.356,0.178,7.435,0.178z"/>
		<path fill="#231F20" d="M8.132,0.191c0.086,0,0.157-0.07,0.157-0.157c0-0.014-0.011-0.022-0.014-0.035H7.99
			C7.987,0.013,7.976,0.021,7.976,0.035C7.976,0.121,8.046,0.191,8.132,0.191z"/>
		<path fill="#231F20" d="M8.83,0.207c0.095,0,0.172-0.077,0.172-0.172c0-0.014-0.011-0.022-0.014-0.035H8.672
			C8.669,0.013,8.658,0.021,8.658,0.035C8.658,0.13,8.735,0.207,8.83,0.207z"/>
		<path fill="#231F20" d="M9.527,0.218c0.102,0,0.184-0.082,0.184-0.184c0-0.014-0.012-0.022-0.014-0.035H9.358
			C9.355,0.013,9.343,0.021,9.343,0.035C9.343,0.136,9.426,0.218,9.527,0.218z"/>
		<path fill="#231F20" d="M10.225,0.232c0.109,0,0.197-0.088,0.197-0.197c0-0.014-0.012-0.022-0.014-0.035h-0.366
			c-0.002,0.013-0.014,0.021-0.014,0.035C10.027,0.144,10.116,0.232,10.225,0.232z"/>
		<path fill="#231F20" d="M10.922,0.246c0.117,0,0.211-0.095,0.211-0.211c0-0.014-0.012-0.022-0.014-0.035h-0.393
			c-0.002,0.013-0.014,0.021-0.014,0.035C10.711,0.151,10.806,0.246,10.922,0.246z"/>
		<path fill="#231F20" d="M11.62,0.259c0.124,0,0.224-0.1,0.224-0.224c0-0.014-0.012-0.022-0.014-0.035h-0.42
			c-0.002,0.013-0.015,0.021-0.015,0.035C11.395,0.159,11.496,0.259,11.62,0.259z"/>
		<path fill="#231F20" d="M12.317,0.271c0.13,0,0.236-0.105,0.236-0.236c0-0.014-0.012-0.022-0.014-0.035h-0.443
			c-0.002,0.013-0.014,0.021-0.014,0.035C12.081,0.165,12.187,0.271,12.317,0.271z"/>
		<path fill="#231F20" d="M13.014,0.284c0.138,0,0.25-0.112,0.25-0.25c0-0.014-0.012-0.022-0.014-0.035h-0.47
			c-0.002,0.013-0.014,0.021-0.014,0.035C12.765,0.172,12.876,0.284,13.014,0.284z"/>
		<path fill="#231F20" d="M13.712,0.294c0.143,0,0.259-0.116,0.259-0.259c0-0.014-0.013-0.021-0.015-0.035h-0.49
			c-0.002,0.013-0.014,0.021-0.014,0.035C13.453,0.178,13.569,0.294,13.712,0.294z"/>
		<path fill="#231F20" d="M14.409,0.304c0.148,0,0.269-0.121,0.269-0.269c0-0.014-0.013-0.021-0.015-0.035h-0.509
			c-0.002,0.013-0.014,0.021-0.014,0.035C14.141,0.183,14.261,0.304,14.409,0.304z"/>
		<path fill="#231F20" d="M15.107,0.313c0.154,0,0.278-0.125,0.278-0.278c0-0.014-0.013-0.021-0.015-0.035h-0.528
			c-0.001,0.013-0.014,0.021-0.014,0.035C14.828,0.188,14.953,0.313,15.107,0.313z"/>
		<path fill="#231F20" d="M15.804,0.321c0.158,0,0.286-0.128,0.286-0.286c0-0.014-0.012-0.021-0.014-0.035h-0.544
			c-0.002,0.013-0.014,0.021-0.014,0.035C15.518,0.193,15.646,0.321,15.804,0.321z"/>
		<path fill="#231F20" d="M16.502,0.325c0.16,0,0.29-0.13,0.29-0.29c0-0.014-0.013-0.021-0.015-0.035h-0.552
			c-0.002,0.013-0.015,0.021-0.015,0.035C16.211,0.195,16.341,0.325,16.502,0.325z"/>
		<path fill="#231F20" d="M17.199,0.329c0.162,0,0.294-0.132,0.294-0.294c0-0.014-0.013-0.021-0.015-0.035h-0.56
			c-0.001,0.013-0.014,0.021-0.014,0.035C16.905,0.197,17.036,0.329,17.199,0.329z"/>
		<path fill="#231F20" d="M17.896,0.329c0.162,0,0.294-0.132,0.294-0.294c0-0.014-0.013-0.021-0.015-0.035h-0.559
			c-0.002,0.013-0.015,0.021-0.015,0.035C17.603,0.197,17.734,0.329,17.896,0.329z"/>
		<path fill="#231F20" d="M18.594,0.327c0.161,0,0.292-0.131,0.292-0.292c0-0.014-0.013-0.021-0.015-0.035h-0.555
			c-0.002,0.013-0.015,0.021-0.015,0.035C18.302,0.196,18.433,0.327,18.594,0.327z"/>
		<path fill="#231F20" d="M19.291,0.323c0.159,0,0.288-0.129,0.288-0.288c0-0.014-0.012-0.021-0.014-0.035h-0.548
			c-0.002,0.013-0.015,0.021-0.015,0.035C19.003,0.194,19.132,0.323,19.291,0.323z"/>
		<path fill="#231F20" d="M19.988,0.315c0.155,0,0.281-0.125,0.281-0.28c0-0.014-0.013-0.021-0.015-0.035h-0.532
			c-0.002,0.013-0.015,0.021-0.015,0.035C19.708,0.189,19.834,0.315,19.988,0.315z"/>
		<path fill="#231F20" d="M20.687,0.304c0.148,0,0.269-0.121,0.269-0.269c0-0.014-0.013-0.021-0.015-0.035h-0.509
			c-0.002,0.013-0.015,0.021-0.015,0.035C20.417,0.183,20.538,0.304,20.687,0.304z"/>
		<path fill="#231F20" d="M21.384,0.288c0.14,0,0.253-0.113,0.253-0.253c0-0.014-0.012-0.022-0.014-0.035h-0.479
			c-0.002,0.013-0.015,0.021-0.015,0.035C21.13,0.175,21.244,0.288,21.384,0.288z"/>
		<path fill="#231F20" d="M22.081,0.271c0.13,0,0.236-0.105,0.236-0.236c0-0.014-0.013-0.022-0.015-0.035h-0.443
			c-0.002,0.013-0.015,0.021-0.015,0.035C21.845,0.165,21.951,0.271,22.081,0.271z"/>
		<path fill="#231F20" d="M22.778,0.25c0.119,0,0.215-0.096,0.215-0.215c0-0.014-0.012-0.022-0.015-0.035h-0.4
			c-0.002,0.013-0.015,0.021-0.015,0.035C22.563,0.153,22.66,0.25,22.778,0.25z"/>
		<path fill="#231F20" d="M23.476,0.228c0.107,0,0.193-0.086,0.193-0.193c0-0.014-0.012-0.022-0.014-0.035h-0.358
			c-0.003,0.013-0.015,0.021-0.015,0.035C23.282,0.142,23.369,0.228,23.476,0.228z"/>
		<path fill="#231F20" d="M24.173,0.208c0.097,0,0.175-0.078,0.175-0.174c0-0.014-0.012-0.022-0.015-0.035h-0.319
			c-0.003,0.013-0.015,0.021-0.015,0.035C23.999,0.131,24.077,0.208,24.173,0.208z"/>
		<path fill="#231F20" d="M24.871,0.193c0.087,0,0.158-0.071,0.158-0.159c0-0.014-0.011-0.022-0.015-0.035h-0.288
			c-0.003,0.013-0.015,0.021-0.015,0.035C24.712,0.122,24.783,0.193,24.871,0.193z"/>
		<path fill="#231F20" d="M25.568,0.186c0.083,0,0.15-0.067,0.15-0.151c0-0.014-0.011-0.022-0.014-0.035h-0.273
			c-0.003,0.013-0.015,0.021-0.015,0.035C25.417,0.118,25.485,0.186,25.568,0.186z"/>
		<path fill="#231F20" d="M26.266,0.182c0.081,0,0.147-0.066,0.147-0.147c0-0.014-0.012-0.022-0.015-0.035h-0.266
			c-0.003,0.012-0.015,0.021-0.015,0.035C26.118,0.116,26.185,0.182,26.266,0.182z"/>
		<path fill="#231F20" d="M26.963,0.189c0.086,0,0.155-0.069,0.155-0.155c0-0.014-0.012-0.022-0.015-0.035h-0.281
			c-0.003,0.013-0.014,0.021-0.014,0.035C26.809,0.12,26.878,0.189,26.963,0.189z"/>
		<path fill="#231F20" d="M27.66,0.207c0.096,0,0.173-0.077,0.173-0.172c0-0.014-0.012-0.022-0.015-0.035h-0.315
			c-0.003,0.013-0.015,0.021-0.015,0.035C27.488,0.13,27.565,0.207,27.66,0.207z"/>
		<path fill="#231F20" d="M28.357,0.24c0.113,0,0.205-0.092,0.205-0.205c0-0.014-0.012-0.022-0.014-0.035h-0.382
			c-0.002,0.013-0.014,0.021-0.014,0.035C28.153,0.148,28.245,0.24,28.357,0.24z"/>
		<path fill="#231F20" d="M29.056,0.288c0.14,0,0.253-0.113,0.253-0.253c0-0.014-0.012-0.022-0.015-0.035h-0.478
			c-0.002,0.013-0.015,0.021-0.015,0.035C28.802,0.175,28.915,0.288,29.056,0.288z"/>
		<path fill="#231F20" d="M29.753,0.354c0.108,0,0.189-0.063,0.247-0.146V0h-0.552c-0.002,0.013-0.015,0.021-0.015,0.035
			C29.434,0.211,29.576,0.354,29.753,0.354z"/>
		<circle fill="#231F20" cx="0.112" cy="0.732" r="0.016"/>
		<circle fill="#231F20" cx="0.809" cy="0.732" r="0.025"/>
		<circle fill="#231F20" cx="1.507" cy="0.732" r="0.035"/>
		<circle fill="#231F20" cx="2.204" cy="0.732" r="0.046"/>
		<circle fill="#231F20" cx="2.902" cy="0.732" r="0.058"/>
		<circle fill="#231F20" cx="3.599" cy="0.732" r="0.072"/>
		<circle fill="#231F20" cx="4.297" cy="0.732" r="0.083"/>
		<circle fill="#231F20" cx="4.994" cy="0.732" r="0.095"/>
		<circle fill="#231F20" cx="5.691" cy="0.732" r="0.108"/>
		<circle fill="#231F20" cx="6.389" cy="0.732" r="0.122"/>
		<circle fill="#231F20" cx="7.086" cy="0.732" r="0.137"/>
		<circle fill="#231F20" cx="7.784" cy="0.732" r="0.151"/>
		<circle fill="#231F20" cx="8.481" cy="0.732" r="0.164"/>
		<circle fill="#231F20" cx="9.179" cy="0.732" r="0.178"/>
		<circle fill="#231F20" cx="9.876" cy="0.732" r="0.192"/>
		<circle fill="#231F20" cx="10.573" cy="0.732" r="0.205"/>
		<circle fill="#231F20" cx="11.271" cy="0.732" r="0.219"/>
		<circle fill="#231F20" cx="11.968" cy="0.732" r="0.23"/>
		<circle fill="#231F20" cx="12.666" cy="0.732" r="0.244"/>
		<circle fill="#231F20" cx="13.363" cy="0.732" r="0.253"/>
		<circle fill="#231F20" cx="14.061" cy="0.732" r="0.265"/>
		<circle fill="#231F20" cx="14.758" cy="0.732" r="0.275"/>
		<circle fill="#231F20" cx="15.456" cy="0.732" r="0.282"/>
		<circle fill="#231F20" cx="16.152" cy="0.732" r="0.288"/>
		<circle fill="#231F20" cx="16.851" cy="0.732" r="0.292"/>
		<circle fill="#231F20" cx="17.548" cy="0.732" r="0.294"/>
		<circle fill="#231F20" cx="18.245" cy="0.732" r="0.294"/>
		<circle fill="#231F20" cx="18.942" cy="0.732" r="0.29"/>
		<circle fill="#231F20" cx="19.64" cy="0.732" r="0.284"/>
		<circle fill="#231F20" cx="20.337" cy="0.732" r="0.275"/>
		<circle fill="#231F20" cx="21.035" cy="0.732" r="0.261"/>
		<circle fill="#231F20" cx="21.732" cy="0.732" r="0.244"/>
		<circle fill="#231F20" cx="22.43" cy="0.732" r="0.224"/>
		<circle fill="#231F20" cx="23.127" cy="0.732" r="0.205"/>
		<circle fill="#231F20" cx="23.824" cy="0.732" r="0.184"/>
		<circle fill="#231F20" cx="24.522" cy="0.732" r="0.166"/>
		<circle fill="#231F20" cx="25.22" cy="0.732" r="0.155"/>
		<circle fill="#231F20" cx="25.917" cy="0.732" r="0.147"/>
		<circle fill="#231F20" cx="26.614" cy="0.732" r="0.149"/>
		<circle fill="#231F20" cx="27.312" cy="0.732" r="0.16"/>
		<circle fill="#231F20" cx="28.009" cy="0.732" r="0.188"/>
		<circle fill="#231F20" cx="28.707" cy="0.732" r="0.226"/>
		<circle fill="#231F20" cx="29.404" cy="0.732" r="0.284"/>
		<path fill="#231F20" d="M29.742,0.732c0,0.163,0.109,0.295,0.258,0.339V0.393C29.852,0.438,29.742,0.569,29.742,0.732z"/>
		<circle fill="#231F20" cx="0.461" cy="1.43" r="0.019"/>
		<circle fill="#231F20" cx="1.158" cy="1.43" r="0.029"/>
		<circle fill="#231F20" cx="1.855" cy="1.43" r="0.041"/>
		<circle fill="#231F20" cx="2.553" cy="1.43" r="0.052"/>
		<circle fill="#231F20" cx="3.25" cy="1.43" r="0.066"/>
		<circle fill="#231F20" cx="3.948" cy="1.43" r="0.077"/>
		<circle fill="#231F20" cx="4.645" cy="1.43" r="0.089"/>
		<circle fill="#231F20" cx="5.343" cy="1.43" r="0.103"/>
		<circle fill="#231F20" cx="6.04" cy="1.429" r="0.116"/>
		<circle fill="#231F20" cx="6.737" cy="1.429" r="0.13"/>
		<circle fill="#231F20" cx="7.435" cy="1.43" r="0.143"/>
		<circle fill="#231F20" cx="8.132" cy="1.429" r="0.156"/>
		<circle fill="#231F20" cx="8.83" cy="1.429" r="0.172"/>
		<circle fill="#231F20" cx="9.527" cy="1.429" r="0.184"/>
		<circle fill="#231F20" cx="10.225" cy="1.43" r="0.197"/>
		<circle fill="#231F20" cx="10.922" cy="1.43" r="0.211"/>
		<circle fill="#231F20" cx="11.619" cy="1.43" r="0.224"/>
		<circle fill="#231F20" cx="12.317" cy="1.43" r="0.236"/>
		<circle fill="#231F20" cx="13.014" cy="1.43" r="0.249"/>
		<circle fill="#231F20" cx="13.712" cy="1.43" r="0.259"/>
		<circle fill="#231F20" cx="14.409" cy="1.43" r="0.269"/>
		<circle fill="#231F20" cx="15.107" cy="1.43" r="0.279"/>
		<circle fill="#231F20" cx="15.804" cy="1.43" r="0.286"/>
		<circle fill="#231F20" cx="16.501" cy="1.43" r="0.291"/>
		<circle fill="#231F20" cx="17.199" cy="1.43" r="0.294"/>
		<circle fill="#231F20" cx="17.896" cy="1.43" r="0.294"/>
		<circle fill="#231F20" cx="18.594" cy="1.43" r="0.292"/>
		<circle fill="#231F20" cx="19.291" cy="1.43" r="0.288"/>
		<circle fill="#231F20" cx="19.989" cy="1.43" r="0.281"/>
		<circle fill="#231F20" cx="20.686" cy="1.43" r="0.269"/>
		<circle fill="#231F20" cx="21.383" cy="1.43" r="0.253"/>
		<circle fill="#231F20" cx="22.081" cy="1.43" r="0.236"/>
		<circle fill="#231F20" cx="22.778" cy="1.43" r="0.215"/>
		<circle fill="#231F20" cx="23.476" cy="1.43" r="0.193"/>
		<circle fill="#231F20" cx="24.173" cy="1.429" r="0.174"/>
		<circle fill="#231F20" cx="24.871" cy="1.429" r="0.158"/>
		<circle fill="#231F20" cx="25.568" cy="1.43" r="0.151"/>
		<circle fill="#231F20" cx="26.266" cy="1.43" r="0.147"/>
		<circle fill="#231F20" cx="26.963" cy="1.43" r="0.155"/>
		<circle fill="#231F20" cx="27.66" cy="1.429" r="0.172"/>
		<circle fill="#231F20" cx="28.357" cy="1.429" r="0.205"/>
		<circle fill="#231F20" cx="29.055" cy="1.43" r="0.253"/>
		<path fill="#231F20" d="M29.753,1.11c-0.177,0-0.319,0.143-0.319,0.319s0.143,0.319,0.319,0.319c0.108,0,0.189-0.063,0.247-0.146
			V1.256C29.942,1.173,29.861,1.11,29.753,1.11z"/>
		<circle fill="#231F20" cx="0.112" cy="2.127" r="0.016"/>
		<circle fill="#231F20" cx="0.809" cy="2.127" r="0.025"/>
		<circle fill="#231F20" cx="1.507" cy="2.127" r="0.035"/>
		<circle fill="#231F20" cx="2.204" cy="2.127" r="0.046"/>
		<circle fill="#231F20" cx="2.902" cy="2.127" r="0.058"/>
		<circle fill="#231F20" cx="3.599" cy="2.127" r="0.072"/>
		<circle fill="#231F20" cx="4.297" cy="2.127" r="0.083"/>
		<circle fill="#231F20" cx="4.994" cy="2.127" r="0.095"/>
		<circle fill="#231F20" cx="5.691" cy="2.127" r="0.108"/>
		<circle fill="#231F20" cx="6.389" cy="2.127" r="0.122"/>
		<circle fill="#231F20" cx="7.086" cy="2.127" r="0.137"/>
		<circle fill="#231F20" cx="7.784" cy="2.127" r="0.151"/>
		<circle fill="#231F20" cx="8.481" cy="2.127" r="0.165"/>
		<circle fill="#231F20" cx="9.179" cy="2.127" r="0.178"/>
		<circle fill="#231F20" cx="9.876" cy="2.127" r="0.191"/>
		<circle fill="#231F20" cx="10.573" cy="2.127" r="0.205"/>
		<circle fill="#231F20" cx="11.271" cy="2.127" r="0.219"/>
		<circle fill="#231F20" cx="11.968" cy="2.127" r="0.23"/>
		<circle fill="#231F20" cx="12.666" cy="2.127" r="0.244"/>
		<circle fill="#231F20" cx="13.363" cy="2.127" r="0.253"/>
		<circle fill="#231F20" cx="14.061" cy="2.127" r="0.265"/>
		<circle fill="#231F20" cx="14.758" cy="2.127" r="0.274"/>
		<circle fill="#231F20" cx="15.456" cy="2.127" r="0.282"/>
		<circle fill="#231F20" cx="16.152" cy="2.127" r="0.288"/>
		<circle fill="#231F20" cx="16.851" cy="2.127" r="0.292"/>
		<circle fill="#231F20" cx="17.548" cy="2.127" r="0.294"/>
		<circle fill="#231F20" cx="18.245" cy="2.127" r="0.294"/>
		<circle fill="#231F20" cx="18.942" cy="2.127" r="0.29"/>
		<circle fill="#231F20" cx="19.64" cy="2.127" r="0.284"/>
		<circle fill="#231F20" cx="20.337" cy="2.127" r="0.274"/>
		<circle fill="#231F20" cx="21.035" cy="2.127" r="0.261"/>
		<circle fill="#231F20" cx="21.732" cy="2.127" r="0.244"/>
		<circle fill="#231F20" cx="22.43" cy="2.127" r="0.224"/>
		<circle fill="#231F20" cx="23.127" cy="2.127" r="0.205"/>
		<circle fill="#231F20" cx="23.824" cy="2.127" r="0.184"/>
		<circle fill="#231F20" cx="24.522" cy="2.127" r="0.167"/>
		<circle fill="#231F20" cx="25.22" cy="2.127" r="0.155"/>
		<circle fill="#231F20" cx="25.917" cy="2.127" r="0.147"/>
		<circle fill="#231F20" cx="26.614" cy="2.127" r="0.149"/>
		<circle fill="#231F20" cx="27.312" cy="2.127" r="0.161"/>
		<circle fill="#231F20" cx="28.009" cy="2.127" r="0.188"/>
		<circle fill="#231F20" cx="28.707" cy="2.127" r="0.226"/>
		<circle fill="#231F20" cx="29.404" cy="2.127" r="0.284"/>
		<path fill="#231F20" d="M29.742,2.127c0,0.163,0.109,0.295,0.258,0.339V1.788C29.852,1.832,29.742,1.964,29.742,2.127z"/>
		<circle fill="#231F20" cx="0.461" cy="2.824" r="0.019"/>
		<circle fill="#231F20" cx="1.158" cy="2.824" r="0.029"/>
		<circle fill="#231F20" cx="1.855" cy="2.824" r="0.041"/>
		<circle fill="#231F20" cx="2.553" cy="2.824" r="0.052"/>
		<circle fill="#231F20" cx="3.25" cy="2.824" r="0.066"/>
		<circle fill="#231F20" cx="3.948" cy="2.824" r="0.077"/>
		<circle fill="#231F20" cx="4.645" cy="2.824" r="0.089"/>
		<circle fill="#231F20" cx="5.343" cy="2.824" r="0.103"/>
		<circle fill="#231F20" cx="6.04" cy="2.824" r="0.116"/>
		<circle fill="#231F20" cx="6.737" cy="2.824" r="0.13"/>
		<circle fill="#231F20" cx="7.435" cy="2.824" r="0.143"/>
		<circle fill="#231F20" cx="8.132" cy="2.824" r="0.157"/>
		<circle fill="#231F20" cx="8.83" cy="2.824" r="0.172"/>
		<circle fill="#231F20" cx="9.527" cy="2.824" r="0.184"/>
		<circle fill="#231F20" cx="10.225" cy="2.824" r="0.197"/>
		<circle fill="#231F20" cx="10.922" cy="2.824" r="0.211"/>
		<circle fill="#231F20" cx="11.619" cy="2.824" r="0.224"/>
		<circle fill="#231F20" cx="12.317" cy="2.824" r="0.236"/>
		<circle fill="#231F20" cx="13.014" cy="2.824" r="0.249"/>
		<circle fill="#231F20" cx="13.712" cy="2.824" r="0.259"/>
		<circle fill="#231F20" cx="14.409" cy="2.824" r="0.269"/>
		<circle fill="#231F20" cx="15.107" cy="2.824" r="0.279"/>
		<circle fill="#231F20" cx="15.804" cy="2.824" r="0.286"/>
		<circle fill="#231F20" cx="16.501" cy="2.824" r="0.291"/>
		<circle fill="#231F20" cx="17.199" cy="2.824" r="0.294"/>
		<circle fill="#231F20" cx="17.896" cy="2.824" r="0.294"/>
		<circle fill="#231F20" cx="18.594" cy="2.824" r="0.292"/>
		<circle fill="#231F20" cx="19.291" cy="2.824" r="0.288"/>
		<circle fill="#231F20" cx="19.989" cy="2.824" r="0.281"/>
		<circle fill="#231F20" cx="20.686" cy="2.824" r="0.269"/>
		<circle fill="#231F20" cx="21.383" cy="2.824" r="0.253"/>
		<circle fill="#231F20" cx="22.081" cy="2.824" r="0.236"/>
		<circle fill="#231F20" cx="22.778" cy="2.824" r="0.215"/>
		<circle fill="#231F20" cx="23.476" cy="2.824" r="0.193"/>
		<circle fill="#231F20" cx="24.173" cy="2.824" r="0.174"/>
		<circle fill="#231F20" cx="24.871" cy="2.824" r="0.158"/>
		<circle fill="#231F20" cx="25.568" cy="2.824" r="0.151"/>
		<circle fill="#231F20" cx="26.266" cy="2.824" r="0.147"/>
		<circle fill="#231F20" cx="26.963" cy="2.824" r="0.155"/>
		<circle fill="#231F20" cx="27.66" cy="2.824" r="0.172"/>
		<circle fill="#231F20" cx="28.358" cy="2.824" r="0.205"/>
		<circle fill="#231F20" cx="29.055" cy="2.824" r="0.253"/>
		<path fill="#231F20" d="M29.753,2.505c-0.177,0-0.319,0.143-0.319,0.319s0.143,0.319,0.319,0.319c0.108,0,0.189-0.063,0.247-0.146
			V2.651C29.942,2.568,29.861,2.505,29.753,2.505z"/>
		<circle fill="#231F20" cx="0.112" cy="3.522" r="0.016"/>
		<circle fill="#231F20" cx="0.809" cy="3.522" r="0.025"/>
		<circle fill="#231F20" cx="1.507" cy="3.522" r="0.035"/>
		<circle fill="#231F20" cx="2.204" cy="3.522" r="0.046"/>
		<circle fill="#231F20" cx="2.902" cy="3.522" r="0.058"/>
		<circle fill="#231F20" cx="3.599" cy="3.522" r="0.072"/>
		<circle fill="#231F20" cx="4.297" cy="3.522" r="0.083"/>
		<circle fill="#231F20" cx="4.994" cy="3.522" r="0.095"/>
		<circle fill="#231F20" cx="5.691" cy="3.522" r="0.108"/>
		<circle fill="#231F20" cx="6.389" cy="3.522" r="0.122"/>
		<circle fill="#231F20" cx="7.086" cy="3.522" r="0.137"/>
		<circle fill="#231F20" cx="7.784" cy="3.522" r="0.151"/>
		<circle fill="#231F20" cx="8.481" cy="3.522" r="0.164"/>
		<circle fill="#231F20" cx="9.179" cy="3.522" r="0.178"/>
		<circle fill="#231F20" cx="9.876" cy="3.522" r="0.191"/>
		<circle fill="#231F20" cx="10.573" cy="3.522" r="0.205"/>
		<circle fill="#231F20" cx="11.271" cy="3.522" r="0.219"/>
		<circle fill="#231F20" cx="11.968" cy="3.522" r="0.23"/>
		<circle fill="#231F20" cx="12.666" cy="3.522" r="0.244"/>
		<circle fill="#231F20" cx="13.363" cy="3.522" r="0.253"/>
		<circle fill="#231F20" cx="14.061" cy="3.522" r="0.265"/>
		<circle fill="#231F20" cx="14.758" cy="3.522" r="0.275"/>
		<circle fill="#231F20" cx="15.456" cy="3.522" r="0.282"/>
		<circle fill="#231F20" cx="16.152" cy="3.522" r="0.288"/>
		<circle fill="#231F20" cx="16.851" cy="3.522" r="0.292"/>
		<circle fill="#231F20" cx="17.548" cy="3.522" r="0.294"/>
		<circle fill="#231F20" cx="18.245" cy="3.522" r="0.294"/>
		<circle fill="#231F20" cx="18.942" cy="3.522" r="0.29"/>
		<circle fill="#231F20" cx="19.64" cy="3.522" r="0.284"/>
		<circle fill="#231F20" cx="20.337" cy="3.522" r="0.275"/>
		<circle fill="#231F20" cx="21.035" cy="3.522" r="0.261"/>
		<circle fill="#231F20" cx="21.732" cy="3.522" r="0.244"/>
		<circle fill="#231F20" cx="22.43" cy="3.522" r="0.224"/>
		<circle fill="#231F20" cx="23.127" cy="3.522" r="0.205"/>
		<circle fill="#231F20" cx="23.824" cy="3.522" r="0.184"/>
		<circle fill="#231F20" cx="24.522" cy="3.522" r="0.166"/>
		<circle fill="#231F20" cx="25.22" cy="3.522" r="0.155"/>
		<circle fill="#231F20" cx="25.917" cy="3.522" r="0.147"/>
		<circle fill="#231F20" cx="26.614" cy="3.522" r="0.149"/>
		<circle fill="#231F20" cx="27.312" cy="3.522" r="0.16"/>
		<circle fill="#231F20" cx="28.009" cy="3.522" r="0.188"/>
		<circle fill="#231F20" cx="28.707" cy="3.522" r="0.226"/>
		<circle fill="#231F20" cx="29.404" cy="3.522" r="0.284"/>
		<path fill="#231F20" d="M29.742,3.522c0,0.163,0.109,0.294,0.258,0.339V3.183C29.852,3.227,29.742,3.359,29.742,3.522z"/>
		<circle fill="#231F20" cx="0.461" cy="4.219" r="0.019"/>
		<circle fill="#231F20" cx="1.158" cy="4.219" r="0.029"/>
		<circle fill="#231F20" cx="1.855" cy="4.219" r="0.041"/>
		<circle fill="#231F20" cx="2.553" cy="4.219" r="0.052"/>
		<circle fill="#231F20" cx="3.25" cy="4.219" r="0.066"/>
		<circle fill="#231F20" cx="3.948" cy="4.219" r="0.077"/>
		<circle fill="#231F20" cx="4.645" cy="4.219" r="0.089"/>
		<circle fill="#231F20" cx="5.343" cy="4.219" r="0.103"/>
		<circle fill="#231F20" cx="6.04" cy="4.219" r="0.116"/>
		<circle fill="#231F20" cx="6.737" cy="4.219" r="0.129"/>
		<circle fill="#231F20" cx="7.435" cy="4.219" r="0.143"/>
		<circle fill="#231F20" cx="8.132" cy="4.219" r="0.157"/>
		<circle fill="#231F20" cx="8.83" cy="4.219" r="0.172"/>
		<circle fill="#231F20" cx="9.527" cy="4.219" r="0.184"/>
		<circle fill="#231F20" cx="10.225" cy="4.219" r="0.197"/>
		<circle fill="#231F20" cx="10.922" cy="4.219" r="0.211"/>
		<circle fill="#231F20" cx="11.619" cy="4.219" r="0.224"/>
		<circle fill="#231F20" cx="12.317" cy="4.219" r="0.236"/>
		<circle fill="#231F20" cx="13.014" cy="4.219" r="0.249"/>
		<circle fill="#231F20" cx="13.712" cy="4.219" r="0.259"/>
		<circle fill="#231F20" cx="14.409" cy="4.219" r="0.269"/>
		<circle fill="#231F20" cx="15.107" cy="4.219" r="0.279"/>
		<circle fill="#231F20" cx="15.804" cy="4.219" r="0.286"/>
		<circle fill="#231F20" cx="16.501" cy="4.219" r="0.291"/>
		<circle fill="#231F20" cx="17.199" cy="4.219" r="0.294"/>
		<circle fill="#231F20" cx="17.896" cy="4.219" r="0.294"/>
		<circle fill="#231F20" cx="18.594" cy="4.219" r="0.292"/>
		<circle fill="#231F20" cx="19.291" cy="4.219" r="0.288"/>
		<circle fill="#231F20" cx="19.989" cy="4.219" r="0.281"/>
		<circle fill="#231F20" cx="20.686" cy="4.219" r="0.269"/>
		<circle fill="#231F20" cx="21.383" cy="4.219" r="0.253"/>
		<circle fill="#231F20" cx="22.081" cy="4.219" r="0.236"/>
		<circle fill="#231F20" cx="22.778" cy="4.219" r="0.215"/>
		<circle fill="#231F20" cx="23.476" cy="4.219" r="0.193"/>
		<circle fill="#231F20" cx="24.173" cy="4.219" r="0.174"/>
		<circle fill="#231F20" cx="24.871" cy="4.219" r="0.159"/>
		<circle fill="#231F20" cx="25.568" cy="4.219" r="0.151"/>
		<circle fill="#231F20" cx="26.266" cy="4.219" r="0.147"/>
		<circle fill="#231F20" cx="26.963" cy="4.219" r="0.155"/>
		<circle fill="#231F20" cx="27.66" cy="4.219" r="0.172"/>
		<circle fill="#231F20" cx="28.358" cy="4.219" r="0.205"/>
		<circle fill="#231F20" cx="29.055" cy="4.219" r="0.253"/>
		<path fill="#231F20" d="M29.753,3.9c-0.177,0-0.319,0.143-0.319,0.319s0.143,0.319,0.319,0.319c0.108,0,0.189-0.063,0.247-0.146
			V4.046C29.942,3.963,29.861,3.9,29.753,3.9z"/>
		<circle fill="#231F20" cx="0.112" cy="4.917" r="0.016"/>
		<circle fill="#231F20" cx="0.809" cy="4.917" r="0.025"/>
		<circle fill="#231F20" cx="1.507" cy="4.917" r="0.035"/>
		<circle fill="#231F20" cx="2.204" cy="4.917" r="0.046"/>
		<circle fill="#231F20" cx="2.902" cy="4.917" r="0.058"/>
		<circle fill="#231F20" cx="3.599" cy="4.917" r="0.072"/>
		<circle fill="#231F20" cx="4.297" cy="4.917" r="0.083"/>
		<circle fill="#231F20" cx="4.994" cy="4.917" r="0.095"/>
		<circle fill="#231F20" cx="5.691" cy="4.917" r="0.108"/>
		<circle fill="#231F20" cx="6.389" cy="4.917" r="0.122"/>
		<circle fill="#231F20" cx="7.086" cy="4.917" r="0.137"/>
		<circle fill="#231F20" cx="7.784" cy="4.917" r="0.151"/>
		<circle fill="#231F20" cx="8.481" cy="4.917" r="0.164"/>
		<circle fill="#231F20" cx="9.179" cy="4.917" r="0.178"/>
		<circle fill="#231F20" cx="9.876" cy="4.917" r="0.191"/>
		<circle fill="#231F20" cx="10.573" cy="4.917" r="0.205"/>
		<circle fill="#231F20" cx="11.271" cy="4.917" r="0.219"/>
		<circle fill="#231F20" cx="11.968" cy="4.917" r="0.23"/>
		<circle fill="#231F20" cx="12.666" cy="4.917" r="0.244"/>
		<circle fill="#231F20" cx="13.363" cy="4.917" r="0.253"/>
		<circle fill="#231F20" cx="14.061" cy="4.917" r="0.265"/>
		<circle fill="#231F20" cx="14.758" cy="4.917" r="0.275"/>
		<circle fill="#231F20" cx="15.456" cy="4.917" r="0.282"/>
		<circle fill="#231F20" cx="16.152" cy="4.917" r="0.288"/>
		<circle fill="#231F20" cx="16.851" cy="4.917" r="0.292"/>
		<circle fill="#231F20" cx="17.548" cy="4.917" r="0.294"/>
		<circle fill="#231F20" cx="18.245" cy="4.917" r="0.294"/>
		<circle fill="#231F20" cx="18.942" cy="4.917" r="0.29"/>
		<circle fill="#231F20" cx="19.64" cy="4.917" r="0.284"/>
		<circle fill="#231F20" cx="20.337" cy="4.917" r="0.275"/>
		<circle fill="#231F20" cx="21.035" cy="4.917" r="0.261"/>
		<circle fill="#231F20" cx="21.732" cy="4.917" r="0.244"/>
		<circle fill="#231F20" cx="22.43" cy="4.917" r="0.224"/>
		<circle fill="#231F20" cx="23.127" cy="4.917" r="0.205"/>
		<circle fill="#231F20" cx="23.824" cy="4.917" r="0.184"/>
		<circle fill="#231F20" cx="24.522" cy="4.917" r="0.166"/>
		<circle fill="#231F20" cx="25.22" cy="4.917" r="0.155"/>
		<circle fill="#231F20" cx="25.917" cy="4.917" r="0.147"/>
		<circle fill="#231F20" cx="26.614" cy="4.917" r="0.149"/>
		<circle fill="#231F20" cx="27.312" cy="4.917" r="0.16"/>
		<circle fill="#231F20" cx="28.009" cy="4.917" r="0.188"/>
		<circle fill="#231F20" cx="28.707" cy="4.917" r="0.226"/>
		<circle fill="#231F20" cx="29.404" cy="4.917" r="0.284"/>
		<path fill="#231F20" d="M29.742,4.917c0,0.163,0.109,0.295,0.258,0.339V4.578C29.852,4.622,29.742,4.754,29.742,4.917z"/>
		<circle fill="#231F20" cx="0.461" cy="5.614" r="0.019"/>
		<circle fill="#231F20" cx="1.158" cy="5.614" r="0.029"/>
		<circle fill="#231F20" cx="1.855" cy="5.614" r="0.041"/>
		<circle fill="#231F20" cx="2.553" cy="5.614" r="0.052"/>
		<circle fill="#231F20" cx="3.25" cy="5.614" r="0.066"/>
		<circle fill="#231F20" cx="3.948" cy="5.614" r="0.077"/>
		<circle fill="#231F20" cx="4.645" cy="5.614" r="0.089"/>
		<circle fill="#231F20" cx="5.343" cy="5.614" r="0.103"/>
		<circle fill="#231F20" cx="6.04" cy="5.614" r="0.116"/>
		<circle fill="#231F20" cx="6.737" cy="5.614" r="0.13"/>
		<circle fill="#231F20" cx="7.435" cy="5.614" r="0.143"/>
		<circle fill="#231F20" cx="8.132" cy="5.614" r="0.156"/>
		<circle fill="#231F20" cx="8.83" cy="5.614" r="0.172"/>
		<circle fill="#231F20" cx="9.527" cy="5.614" r="0.184"/>
		<circle fill="#231F20" cx="10.225" cy="5.614" r="0.197"/>
		<circle fill="#231F20" cx="10.922" cy="5.614" r="0.211"/>
		<circle fill="#231F20" cx="11.619" cy="5.614" r="0.224"/>
		<circle fill="#231F20" cx="12.317" cy="5.614" r="0.236"/>
		<circle fill="#231F20" cx="13.014" cy="5.614" r="0.249"/>
		<circle fill="#231F20" cx="13.712" cy="5.614" r="0.259"/>
		<circle fill="#231F20" cx="14.409" cy="5.614" r="0.269"/>
		<circle fill="#231F20" cx="15.107" cy="5.614" r="0.279"/>
		<circle fill="#231F20" cx="15.804" cy="5.614" r="0.286"/>
		<circle fill="#231F20" cx="16.501" cy="5.614" r="0.291"/>
		<circle fill="#231F20" cx="17.199" cy="5.614" r="0.294"/>
		<circle fill="#231F20" cx="17.896" cy="5.614" r="0.294"/>
		<circle fill="#231F20" cx="18.594" cy="5.614" r="0.292"/>
		<circle fill="#231F20" cx="19.291" cy="5.614" r="0.288"/>
		<circle fill="#231F20" cx="19.989" cy="5.614" r="0.281"/>
		<circle fill="#231F20" cx="20.686" cy="5.614" r="0.269"/>
		<circle fill="#231F20" cx="21.383" cy="5.614" r="0.253"/>
		<circle fill="#231F20" cx="22.081" cy="5.614" r="0.236"/>
		<circle fill="#231F20" cx="22.778" cy="5.614" r="0.215"/>
		<circle fill="#231F20" cx="23.476" cy="5.614" r="0.193"/>
		<circle fill="#231F20" cx="24.173" cy="5.614" r="0.174"/>
		<circle fill="#231F20" cx="24.871" cy="5.614" r="0.159"/>
		<circle fill="#231F20" cx="25.568" cy="5.614" r="0.151"/>
		<circle fill="#231F20" cx="26.266" cy="5.614" r="0.147"/>
		<circle fill="#231F20" cx="26.963" cy="5.614" r="0.155"/>
		<circle fill="#231F20" cx="27.66" cy="5.614" r="0.172"/>
		<circle fill="#231F20" cx="28.357" cy="5.614" r="0.205"/>
		<circle fill="#231F20" cx="29.055" cy="5.614" r="0.253"/>
		<path fill="#231F20" d="M29.753,5.295c-0.177,0-0.319,0.143-0.319,0.319s0.143,0.319,0.319,0.319c0.108,0,0.189-0.063,0.247-0.146
			V5.44C29.942,5.358,29.861,5.295,29.753,5.295z"/>
		<circle fill="#231F20" cx="0.112" cy="6.312" r="0.016"/>
		<circle fill="#231F20" cx="0.809" cy="6.312" r="0.025"/>
		<circle fill="#231F20" cx="1.507" cy="6.312" r="0.035"/>
		<circle fill="#231F20" cx="2.204" cy="6.312" r="0.046"/>
		<circle fill="#231F20" cx="2.902" cy="6.312" r="0.058"/>
		<circle fill="#231F20" cx="3.599" cy="6.312" r="0.072"/>
		<circle fill="#231F20" cx="4.297" cy="6.312" r="0.083"/>
		<circle fill="#231F20" cx="4.994" cy="6.312" r="0.095"/>
		<circle fill="#231F20" cx="5.691" cy="6.312" r="0.108"/>
		<circle fill="#231F20" cx="6.389" cy="6.312" r="0.122"/>
		<circle fill="#231F20" cx="7.086" cy="6.312" r="0.137"/>
		<circle fill="#231F20" cx="7.784" cy="6.312" r="0.151"/>
		<circle fill="#231F20" cx="8.481" cy="6.312" r="0.165"/>
		<circle fill="#231F20" cx="9.179" cy="6.312" r="0.178"/>
		<circle fill="#231F20" cx="9.876" cy="6.312" r="0.191"/>
		<circle fill="#231F20" cx="10.573" cy="6.312" r="0.205"/>
		<circle fill="#231F20" cx="11.271" cy="6.312" r="0.219"/>
		<circle fill="#231F20" cx="11.968" cy="6.312" r="0.23"/>
		<circle fill="#231F20" cx="12.666" cy="6.312" r="0.244"/>
		<circle fill="#231F20" cx="13.363" cy="6.312" r="0.253"/>
		<circle fill="#231F20" cx="14.061" cy="6.312" r="0.265"/>
		<circle fill="#231F20" cx="14.758" cy="6.312" r="0.274"/>
		<circle fill="#231F20" cx="15.456" cy="6.312" r="0.282"/>
		<circle fill="#231F20" cx="16.152" cy="6.312" r="0.288"/>
		<circle fill="#231F20" cx="16.851" cy="6.312" r="0.292"/>
		<circle fill="#231F20" cx="17.548" cy="6.312" r="0.294"/>
		<circle fill="#231F20" cx="18.245" cy="6.312" r="0.294"/>
		<circle fill="#231F20" cx="18.942" cy="6.312" r="0.29"/>
		<circle fill="#231F20" cx="19.64" cy="6.312" r="0.284"/>
		<circle fill="#231F20" cx="20.337" cy="6.312" r="0.274"/>
		<circle fill="#231F20" cx="21.035" cy="6.312" r="0.261"/>
		<circle fill="#231F20" cx="21.732" cy="6.312" r="0.244"/>
		<circle fill="#231F20" cx="22.43" cy="6.312" r="0.224"/>
		<circle fill="#231F20" cx="23.127" cy="6.312" r="0.205"/>
		<circle fill="#231F20" cx="23.824" cy="6.312" r="0.184"/>
		<circle fill="#231F20" cx="24.522" cy="6.312" r="0.167"/>
		<circle fill="#231F20" cx="25.22" cy="6.312" r="0.155"/>
		<circle fill="#231F20" cx="25.917" cy="6.312" r="0.147"/>
		<circle fill="#231F20" cx="26.614" cy="6.312" r="0.149"/>
		<circle fill="#231F20" cx="27.312" cy="6.312" r="0.161"/>
		<circle fill="#231F20" cx="28.009" cy="6.312" r="0.188"/>
		<circle fill="#231F20" cx="28.707" cy="6.312" r="0.226"/>
		<circle fill="#231F20" cx="29.404" cy="6.312" r="0.284"/>
		<path fill="#231F20" d="M29.742,6.312c0,0.163,0.109,0.295,0.258,0.339V5.972C29.852,6.017,29.742,6.149,29.742,6.312z"/>
		<circle fill="#231F20" cx="0.461" cy="7.009" r="0.019"/>
		<circle fill="#231F20" cx="1.158" cy="7.009" r="0.029"/>
		<circle fill="#231F20" cx="1.855" cy="7.009" r="0.041"/>
		<circle fill="#231F20" cx="2.553" cy="7.009" r="0.052"/>
		<circle fill="#231F20" cx="3.25" cy="7.009" r="0.066"/>
		<circle fill="#231F20" cx="3.948" cy="7.009" r="0.077"/>
		<circle fill="#231F20" cx="4.645" cy="7.009" r="0.089"/>
		<circle fill="#231F20" cx="5.343" cy="7.009" r="0.103"/>
		<circle fill="#231F20" cx="6.04" cy="7.009" r="0.116"/>
		<circle fill="#231F20" cx="6.737" cy="7.009" r="0.13"/>
		<circle fill="#231F20" cx="7.435" cy="7.009" r="0.143"/>
		<circle fill="#231F20" cx="8.132" cy="7.009" r="0.156"/>
		<circle fill="#231F20" cx="8.83" cy="7.009" r="0.172"/>
		<circle fill="#231F20" cx="9.527" cy="7.009" r="0.184"/>
		<circle fill="#231F20" cx="10.225" cy="7.009" r="0.197"/>
		<circle fill="#231F20" cx="10.922" cy="7.009" r="0.211"/>
		<circle fill="#231F20" cx="11.619" cy="7.009" r="0.224"/>
		<circle fill="#231F20" cx="12.317" cy="7.009" r="0.236"/>
		<circle fill="#231F20" cx="13.014" cy="7.009" r="0.249"/>
		<circle fill="#231F20" cx="13.712" cy="7.009" r="0.259"/>
		<circle fill="#231F20" cx="14.409" cy="7.009" r="0.269"/>
		<circle fill="#231F20" cx="15.107" cy="7.009" r="0.279"/>
		<circle fill="#231F20" cx="15.804" cy="7.009" r="0.286"/>
		<circle fill="#231F20" cx="16.501" cy="7.009" r="0.291"/>
		<circle fill="#231F20" cx="17.199" cy="7.009" r="0.294"/>
		<circle fill="#231F20" cx="17.896" cy="7.009" r="0.294"/>
		<circle fill="#231F20" cx="18.594" cy="7.009" r="0.292"/>
		<circle fill="#231F20" cx="19.291" cy="7.009" r="0.288"/>
		<circle fill="#231F20" cx="19.989" cy="7.009" r="0.281"/>
		<circle fill="#231F20" cx="20.686" cy="7.009" r="0.269"/>
		<circle fill="#231F20" cx="21.383" cy="7.009" r="0.253"/>
		<circle fill="#231F20" cx="22.081" cy="7.009" r="0.236"/>
		<circle fill="#231F20" cx="22.778" cy="7.009" r="0.215"/>
		<circle fill="#231F20" cx="23.476" cy="7.009" r="0.193"/>
		<circle fill="#231F20" cx="24.173" cy="7.009" r="0.174"/>
		<circle fill="#231F20" cx="24.871" cy="7.009" r="0.158"/>
		<circle fill="#231F20" cx="25.568" cy="7.009" r="0.151"/>
		<circle fill="#231F20" cx="26.266" cy="7.009" r="0.147"/>
		<circle fill="#231F20" cx="26.963" cy="7.009" r="0.155"/>
		<circle fill="#231F20" cx="27.66" cy="7.009" r="0.172"/>
		<circle fill="#231F20" cx="28.357" cy="7.009" r="0.205"/>
		<circle fill="#231F20" cx="29.055" cy="7.009" r="0.253"/>
		<path fill="#231F20" d="M29.753,6.69c-0.177,0-0.319,0.143-0.319,0.319s0.143,0.319,0.319,0.319c0.108,0,0.189-0.063,0.247-0.146
			V6.835C29.942,6.753,29.861,6.69,29.753,6.69z"/>
		<circle fill="#231F20" cx="0.112" cy="7.707" r="0.016"/>
		<circle fill="#231F20" cx="0.809" cy="7.707" r="0.025"/>
		<circle fill="#231F20" cx="1.507" cy="7.707" r="0.035"/>
		<circle fill="#231F20" cx="2.204" cy="7.707" r="0.046"/>
		<circle fill="#231F20" cx="2.902" cy="7.707" r="0.058"/>
		<circle fill="#231F20" cx="3.599" cy="7.707" r="0.072"/>
		<circle fill="#231F20" cx="4.297" cy="7.707" r="0.083"/>
		<circle fill="#231F20" cx="4.994" cy="7.707" r="0.095"/>
		<circle fill="#231F20" cx="5.691" cy="7.707" r="0.108"/>
		<circle fill="#231F20" cx="6.389" cy="7.706" r="0.122"/>
		<circle fill="#231F20" cx="7.086" cy="7.706" r="0.137"/>
		<circle fill="#231F20" cx="7.784" cy="7.707" r="0.151"/>
		<circle fill="#231F20" cx="8.481" cy="7.706" r="0.164"/>
		<circle fill="#231F20" cx="9.179" cy="7.706" r="0.178"/>
		<circle fill="#231F20" cx="9.876" cy="7.707" r="0.191"/>
		<circle fill="#231F20" cx="10.573" cy="7.707" r="0.205"/>
		<circle fill="#231F20" cx="11.271" cy="7.706" r="0.219"/>
		<circle fill="#231F20" cx="11.968" cy="7.706" r="0.23"/>
		<circle fill="#231F20" cx="12.666" cy="7.707" r="0.244"/>
		<circle fill="#231F20" cx="13.363" cy="7.707" r="0.253"/>
		<circle fill="#231F20" cx="14.061" cy="7.706" r="0.265"/>
		<circle fill="#231F20" cx="14.758" cy="7.706" r="0.275"/>
		<circle fill="#231F20" cx="15.456" cy="7.706" r="0.282"/>
		<circle fill="#231F20" cx="16.152" cy="7.707" r="0.288"/>
		<circle fill="#231F20" cx="16.851" cy="7.707" r="0.292"/>
		<circle fill="#231F20" cx="17.548" cy="7.707" r="0.294"/>
		<circle fill="#231F20" cx="18.245" cy="7.707" r="0.294"/>
		<circle fill="#231F20" cx="18.942" cy="7.707" r="0.29"/>
		<circle fill="#231F20" cx="19.64" cy="7.707" r="0.284"/>
		<circle fill="#231F20" cx="20.337" cy="7.706" r="0.275"/>
		<circle fill="#231F20" cx="21.035" cy="7.707" r="0.261"/>
		<circle fill="#231F20" cx="21.732" cy="7.707" r="0.244"/>
		<circle fill="#231F20" cx="22.43" cy="7.707" r="0.225"/>
		<circle fill="#231F20" cx="23.127" cy="7.707" r="0.205"/>
		<circle fill="#231F20" cx="23.824" cy="7.707" r="0.184"/>
		<circle fill="#231F20" cx="24.522" cy="7.706" r="0.166"/>
		<circle fill="#231F20" cx="25.22" cy="7.707" r="0.155"/>
		<circle fill="#231F20" cx="25.917" cy="7.707" r="0.147"/>
		<circle fill="#231F20" cx="26.614" cy="7.707" r="0.149"/>
		<circle fill="#231F20" cx="27.312" cy="7.706" r="0.16"/>
		<circle fill="#231F20" cx="28.009" cy="7.707" r="0.188"/>
		<circle fill="#231F20" cx="28.707" cy="7.707" r="0.226"/>
		<circle fill="#231F20" cx="29.404" cy="7.707" r="0.284"/>
		<path fill="#231F20" d="M29.742,7.707c0,0.163,0.109,0.294,0.258,0.339V7.367C29.852,7.412,29.742,7.544,29.742,7.707z"/>
		<circle fill="#231F20" cx="0.461" cy="8.404" r="0.019"/>
		<circle fill="#231F20" cx="1.158" cy="8.404" r="0.029"/>
		<circle fill="#231F20" cx="1.855" cy="8.404" r="0.041"/>
		<circle fill="#231F20" cx="2.553" cy="8.404" r="0.052"/>
		<circle fill="#231F20" cx="3.25" cy="8.404" r="0.066"/>
		<circle fill="#231F20" cx="3.948" cy="8.404" r="0.077"/>
		<circle fill="#231F20" cx="4.645" cy="8.404" r="0.089"/>
		<circle fill="#231F20" cx="5.343" cy="8.404" r="0.103"/>
		<circle fill="#231F20" cx="6.04" cy="8.404" r="0.116"/>
		<circle fill="#231F20" cx="6.737" cy="8.404" r="0.13"/>
		<circle fill="#231F20" cx="7.435" cy="8.404" r="0.143"/>
		<circle fill="#231F20" cx="8.132" cy="8.404" r="0.157"/>
		<circle fill="#231F20" cx="8.83" cy="8.404" r="0.172"/>
		<circle fill="#231F20" cx="9.527" cy="8.404" r="0.184"/>
		<circle fill="#231F20" cx="10.225" cy="8.404" r="0.197"/>
		<circle fill="#231F20" cx="10.922" cy="8.404" r="0.211"/>
		<circle fill="#231F20" cx="11.619" cy="8.404" r="0.224"/>
		<circle fill="#231F20" cx="12.317" cy="8.404" r="0.236"/>
		<circle fill="#231F20" cx="13.014" cy="8.404" r="0.249"/>
		<circle fill="#231F20" cx="13.712" cy="8.404" r="0.259"/>
		<circle fill="#231F20" cx="14.409" cy="8.404" r="0.269"/>
		<circle fill="#231F20" cx="15.107" cy="8.404" r="0.279"/>
		<circle fill="#231F20" cx="15.804" cy="8.404" r="0.286"/>
		<circle fill="#231F20" cx="16.501" cy="8.404" r="0.291"/>
		<circle fill="#231F20" cx="17.199" cy="8.404" r="0.294"/>
		<circle fill="#231F20" cx="17.896" cy="8.404" r="0.294"/>
		<circle fill="#231F20" cx="18.594" cy="8.404" r="0.292"/>
		<circle fill="#231F20" cx="19.291" cy="8.404" r="0.288"/>
		<circle fill="#231F20" cx="19.989" cy="8.404" r="0.281"/>
		<circle fill="#231F20" cx="20.686" cy="8.404" r="0.269"/>
		<circle fill="#231F20" cx="21.383" cy="8.404" r="0.253"/>
		<circle fill="#231F20" cx="22.081" cy="8.404" r="0.236"/>
		<circle fill="#231F20" cx="22.778" cy="8.404" r="0.215"/>
		<circle fill="#231F20" cx="23.476" cy="8.404" r="0.193"/>
		<circle fill="#231F20" cx="24.173" cy="8.404" r="0.174"/>
		<circle fill="#231F20" cx="24.871" cy="8.404" r="0.159"/>
		<circle fill="#231F20" cx="25.568" cy="8.404" r="0.151"/>
		<circle fill="#231F20" cx="26.266" cy="8.404" r="0.147"/>
		<circle fill="#231F20" cx="26.963" cy="8.404" r="0.155"/>
		<circle fill="#231F20" cx="27.66" cy="8.404" r="0.172"/>
		<circle fill="#231F20" cx="28.357" cy="8.404" r="0.205"/>
		<circle fill="#231F20" cx="29.055" cy="8.404" r="0.253"/>
		<path fill="#231F20" d="M29.753,8.085c-0.177,0-0.319,0.143-0.319,0.319s0.143,0.319,0.319,0.319c0.108,0,0.189-0.063,0.247-0.146
			V8.23C29.942,8.147,29.861,8.085,29.753,8.085z"/>
		<circle fill="#231F20" cx="0.112" cy="9.102" r="0.016"/>
		<circle fill="#231F20" cx="0.809" cy="9.102" r="0.025"/>
		<circle fill="#231F20" cx="1.507" cy="9.102" r="0.035"/>
		<circle fill="#231F20" cx="2.204" cy="9.102" r="0.046"/>
		<circle fill="#231F20" cx="2.902" cy="9.102" r="0.058"/>
		<circle fill="#231F20" cx="3.599" cy="9.102" r="0.072"/>
		<circle fill="#231F20" cx="4.297" cy="9.102" r="0.083"/>
		<circle fill="#231F20" cx="4.994" cy="9.101" r="0.095"/>
		<circle fill="#231F20" cx="5.691" cy="9.101" r="0.108"/>
		<circle fill="#231F20" cx="6.389" cy="9.101" r="0.122"/>
		<circle fill="#231F20" cx="7.086" cy="9.101" r="0.137"/>
		<circle fill="#231F20" cx="7.784" cy="9.101" r="0.151"/>
		<circle fill="#231F20" cx="8.481" cy="9.101" r="0.164"/>
		<circle fill="#231F20" cx="9.179" cy="9.101" r="0.178"/>
		<circle fill="#231F20" cx="9.876" cy="9.101" r="0.191"/>
		<circle fill="#231F20" cx="10.573" cy="9.101" r="0.205"/>
		<circle fill="#231F20" cx="11.271" cy="9.101" r="0.219"/>
		<circle fill="#231F20" cx="11.968" cy="9.101" r="0.23"/>
		<circle fill="#231F20" cx="12.666" cy="9.101" r="0.244"/>
		<circle fill="#231F20" cx="13.363" cy="9.101" r="0.253"/>
		<circle fill="#231F20" cx="14.061" cy="9.101" r="0.265"/>
		<circle fill="#231F20" cx="14.758" cy="9.101" r="0.275"/>
		<circle fill="#231F20" cx="15.456" cy="9.101" r="0.282"/>
		<circle fill="#231F20" cx="16.152" cy="9.101" r="0.288"/>
		<circle fill="#231F20" cx="16.851" cy="9.101" r="0.292"/>
		<circle fill="#231F20" cx="17.548" cy="9.101" r="0.294"/>
		<circle fill="#231F20" cx="18.245" cy="9.101" r="0.294"/>
		<circle fill="#231F20" cx="18.942" cy="9.101" r="0.29"/>
		<circle fill="#231F20" cx="19.64" cy="9.101" r="0.284"/>
		<circle fill="#231F20" cx="20.337" cy="9.101" r="0.275"/>
		<circle fill="#231F20" cx="21.035" cy="9.101" r="0.261"/>
		<circle fill="#231F20" cx="21.732" cy="9.101" r="0.244"/>
		<circle fill="#231F20" cx="22.43" cy="9.102" r="0.225"/>
		<circle fill="#231F20" cx="23.127" cy="9.101" r="0.205"/>
		<circle fill="#231F20" cx="23.824" cy="9.101" r="0.184"/>
		<circle fill="#231F20" cx="24.522" cy="9.101" r="0.166"/>
		<circle fill="#231F20" cx="25.22" cy="9.101" r="0.155"/>
		<circle fill="#231F20" cx="25.917" cy="9.101" r="0.147"/>
		<circle fill="#231F20" cx="26.614" cy="9.101" r="0.149"/>
		<circle fill="#231F20" cx="27.312" cy="9.101" r="0.16"/>
		<circle fill="#231F20" cx="28.009" cy="9.101" r="0.188"/>
		<circle fill="#231F20" cx="28.707" cy="9.102" r="0.226"/>
		<circle fill="#231F20" cx="29.404" cy="9.102" r="0.284"/>
		<path fill="#231F20" d="M29.742,9.102c0,0.163,0.109,0.294,0.258,0.339V8.762C29.852,8.807,29.742,8.938,29.742,9.102z"/>
		<circle fill="#231F20" cx="0.461" cy="9.799" r="0.019"/>
		<circle fill="#231F20" cx="1.158" cy="9.799" r="0.029"/>
		<circle fill="#231F20" cx="1.855" cy="9.799" r="0.041"/>
		<circle fill="#231F20" cx="2.553" cy="9.799" r="0.052"/>
		<circle fill="#231F20" cx="3.25" cy="9.799" r="0.066"/>
		<circle fill="#231F20" cx="3.948" cy="9.799" r="0.077"/>
		<circle fill="#231F20" cx="4.645" cy="9.799" r="0.089"/>
		<circle fill="#231F20" cx="5.343" cy="9.799" r="0.103"/>
		<circle fill="#231F20" cx="6.04" cy="9.799" r="0.116"/>
		<circle fill="#231F20" cx="6.737" cy="9.799" r="0.13"/>
		<circle fill="#231F20" cx="7.435" cy="9.799" r="0.143"/>
		<circle fill="#231F20" cx="8.132" cy="9.799" r="0.157"/>
		<circle fill="#231F20" cx="8.83" cy="9.799" r="0.172"/>
		<circle fill="#231F20" cx="9.527" cy="9.799" r="0.184"/>
		<circle fill="#231F20" cx="10.225" cy="9.799" r="0.197"/>
		<circle fill="#231F20" cx="10.922" cy="9.799" r="0.211"/>
		<circle fill="#231F20" cx="11.619" cy="9.799" r="0.224"/>
		<circle fill="#231F20" cx="12.317" cy="9.799" r="0.236"/>
		<circle fill="#231F20" cx="13.014" cy="9.799" r="0.249"/>
		<circle fill="#231F20" cx="13.712" cy="9.799" r="0.259"/>
		<circle fill="#231F20" cx="14.409" cy="9.799" r="0.269"/>
		<circle fill="#231F20" cx="15.107" cy="9.799" r="0.279"/>
		<circle fill="#231F20" cx="15.804" cy="9.799" r="0.286"/>
		<circle fill="#231F20" cx="16.501" cy="9.799" r="0.291"/>
		<circle fill="#231F20" cx="17.199" cy="9.799" r="0.294"/>
		<circle fill="#231F20" cx="17.896" cy="9.799" r="0.294"/>
		<circle fill="#231F20" cx="18.594" cy="9.799" r="0.292"/>
		<circle fill="#231F20" cx="19.291" cy="9.799" r="0.288"/>
		<circle fill="#231F20" cx="19.989" cy="9.799" r="0.281"/>
		<circle fill="#231F20" cx="20.686" cy="9.799" r="0.269"/>
		<circle fill="#231F20" cx="21.383" cy="9.799" r="0.253"/>
		<circle fill="#231F20" cx="22.081" cy="9.799" r="0.236"/>
		<circle fill="#231F20" cx="22.778" cy="9.799" r="0.215"/>
		<circle fill="#231F20" cx="23.476" cy="9.799" r="0.193"/>
		<circle fill="#231F20" cx="24.173" cy="9.799" r="0.174"/>
		<circle fill="#231F20" cx="24.871" cy="9.799" r="0.159"/>
		<circle fill="#231F20" cx="25.568" cy="9.799" r="0.151"/>
		<circle fill="#231F20" cx="26.266" cy="9.799" r="0.147"/>
		<circle fill="#231F20" cx="26.963" cy="9.799" r="0.155"/>
		<circle fill="#231F20" cx="27.66" cy="9.799" r="0.172"/>
		<circle fill="#231F20" cx="28.357" cy="9.799" r="0.205"/>
		<circle fill="#231F20" cx="29.055" cy="9.799" r="0.253"/>
		<path fill="#231F20" d="M29.753,9.479c-0.177,0-0.319,0.143-0.319,0.319s0.143,0.319,0.319,0.319c0.108,0,0.189-0.063,0.247-0.146
			V9.625C29.942,9.542,29.861,9.479,29.753,9.479z"/>
		<circle fill="#231F20" cx="0.112" cy="10.496" r="0.016"/>
		<circle fill="#231F20" cx="0.809" cy="10.496" r="0.025"/>
		<circle fill="#231F20" cx="1.507" cy="10.496" r="0.035"/>
		<circle fill="#231F20" cx="2.204" cy="10.496" r="0.046"/>
		<circle fill="#231F20" cx="2.902" cy="10.496" r="0.058"/>
		<circle fill="#231F20" cx="3.599" cy="10.496" r="0.072"/>
		<circle fill="#231F20" cx="4.297" cy="10.496" r="0.083"/>
		<circle fill="#231F20" cx="4.994" cy="10.496" r="0.095"/>
		<circle fill="#231F20" cx="5.691" cy="10.496" r="0.108"/>
		<circle fill="#231F20" cx="6.389" cy="10.496" r="0.122"/>
		<circle fill="#231F20" cx="7.086" cy="10.496" r="0.137"/>
		<circle fill="#231F20" cx="7.784" cy="10.496" r="0.151"/>
		<circle fill="#231F20" cx="8.481" cy="10.496" r="0.164"/>
		<circle fill="#231F20" cx="9.179" cy="10.496" r="0.178"/>
		<circle fill="#231F20" cx="9.876" cy="10.496" r="0.191"/>
		<circle fill="#231F20" cx="10.573" cy="10.496" r="0.205"/>
		<circle fill="#231F20" cx="11.271" cy="10.496" r="0.219"/>
		<circle fill="#231F20" cx="11.968" cy="10.496" r="0.23"/>
		<circle fill="#231F20" cx="12.666" cy="10.496" r="0.244"/>
		<circle fill="#231F20" cx="13.363" cy="10.496" r="0.253"/>
		<circle fill="#231F20" cx="14.06" cy="10.496" r="0.265"/>
		<circle fill="#231F20" cx="14.758" cy="10.496" r="0.275"/>
		<circle fill="#231F20" cx="15.455" cy="10.496" r="0.282"/>
		<circle fill="#231F20" cx="16.153" cy="10.496" r="0.288"/>
		<circle fill="#231F20" cx="16.851" cy="10.496" r="0.292"/>
		<circle fill="#231F20" cx="17.548" cy="10.496" r="0.294"/>
		<circle fill="#231F20" cx="18.245" cy="10.496" r="0.294"/>
		<circle fill="#231F20" cx="18.942" cy="10.496" r="0.29"/>
		<circle fill="#231F20" cx="19.64" cy="10.496" r="0.284"/>
		<circle fill="#231F20" cx="20.337" cy="10.496" r="0.275"/>
		<circle fill="#231F20" cx="21.035" cy="10.496" r="0.261"/>
		<circle fill="#231F20" cx="21.732" cy="10.496" r="0.244"/>
		<circle fill="#231F20" cx="22.43" cy="10.496" r="0.225"/>
		<circle fill="#231F20" cx="23.127" cy="10.496" r="0.205"/>
		<circle fill="#231F20" cx="23.824" cy="10.496" r="0.184"/>
		<circle fill="#231F20" cx="24.522" cy="10.496" r="0.167"/>
		<circle fill="#231F20" cx="25.22" cy="10.496" r="0.155"/>
		<circle fill="#231F20" cx="25.917" cy="10.496" r="0.147"/>
		<circle fill="#231F20" cx="26.614" cy="10.496" r="0.149"/>
		<circle fill="#231F20" cx="27.312" cy="10.496" r="0.161"/>
		<circle fill="#231F20" cx="28.009" cy="10.496" r="0.188"/>
		<circle fill="#231F20" cx="28.707" cy="10.496" r="0.226"/>
		<circle fill="#231F20" cx="29.404" cy="10.496" r="0.284"/>
		<path fill="#231F20" d="M29.742,10.496c0,0.163,0.109,0.295,0.258,0.339v-0.679C29.852,10.201,29.742,10.333,29.742,10.496z"/>
		<circle fill="#231F20" cx="0.461" cy="11.193" r="0.019"/>
		<circle fill="#231F20" cx="1.158" cy="11.193" r="0.029"/>
		<circle fill="#231F20" cx="1.855" cy="11.193" r="0.041"/>
		<circle fill="#231F20" cx="2.553" cy="11.193" r="0.052"/>
		<circle fill="#231F20" cx="3.25" cy="11.193" r="0.066"/>
		<circle fill="#231F20" cx="3.948" cy="11.193" r="0.077"/>
		<circle fill="#231F20" cx="4.645" cy="11.193" r="0.089"/>
		<circle fill="#231F20" cx="5.343" cy="11.193" r="0.103"/>
		<circle fill="#231F20" cx="6.04" cy="11.193" r="0.116"/>
		<circle fill="#231F20" cx="6.737" cy="11.194" r="0.129"/>
		<circle fill="#231F20" cx="7.435" cy="11.194" r="0.143"/>
		<circle fill="#231F20" cx="8.132" cy="11.194" r="0.157"/>
		<circle fill="#231F20" cx="8.83" cy="11.193" r="0.172"/>
		<circle fill="#231F20" cx="9.527" cy="11.193" r="0.184"/>
		<circle fill="#231F20" cx="10.225" cy="11.193" r="0.197"/>
		<circle fill="#231F20" cx="10.922" cy="11.193" r="0.211"/>
		<circle fill="#231F20" cx="11.619" cy="11.193" r="0.224"/>
		<circle fill="#231F20" cx="12.317" cy="11.193" r="0.236"/>
		<circle fill="#231F20" cx="13.014" cy="11.193" r="0.249"/>
		<circle fill="#231F20" cx="13.712" cy="11.193" r="0.259"/>
		<circle fill="#231F20" cx="14.409" cy="11.193" r="0.269"/>
		<circle fill="#231F20" cx="15.107" cy="11.193" r="0.279"/>
		<circle fill="#231F20" cx="15.804" cy="11.193" r="0.286"/>
		<circle fill="#231F20" cx="16.501" cy="11.193" r="0.291"/>
		<circle fill="#231F20" cx="17.199" cy="11.193" r="0.294"/>
		<circle fill="#231F20" cx="17.896" cy="11.193" r="0.294"/>
		<circle fill="#231F20" cx="18.594" cy="11.193" r="0.292"/>
		<circle fill="#231F20" cx="19.291" cy="11.193" r="0.288"/>
		<circle fill="#231F20" cx="19.989" cy="11.193" r="0.281"/>
		<circle fill="#231F20" cx="20.686" cy="11.193" r="0.269"/>
		<circle fill="#231F20" cx="21.383" cy="11.193" r="0.253"/>
		<circle fill="#231F20" cx="22.081" cy="11.193" r="0.236"/>
		<circle fill="#231F20" cx="22.778" cy="11.193" r="0.215"/>
		<circle fill="#231F20" cx="23.476" cy="11.193" r="0.193"/>
		<circle fill="#231F20" cx="24.173" cy="11.193" r="0.174"/>
		<circle fill="#231F20" cx="24.871" cy="11.194" r="0.159"/>
		<circle fill="#231F20" cx="25.568" cy="11.194" r="0.151"/>
		<circle fill="#231F20" cx="26.266" cy="11.194" r="0.147"/>
		<circle fill="#231F20" cx="26.963" cy="11.194" r="0.155"/>
		<circle fill="#231F20" cx="27.66" cy="11.193" r="0.172"/>
		<circle fill="#231F20" cx="28.357" cy="11.194" r="0.205"/>
		<circle fill="#231F20" cx="29.055" cy="11.193" r="0.253"/>
		<path fill="#231F20" d="M29.753,10.875c-0.177,0-0.319,0.143-0.319,0.319c0,0.177,0.143,0.319,0.319,0.319
			c0.108,0,0.189-0.063,0.247-0.146v-0.347C29.942,10.938,29.861,10.875,29.753,10.875z"/>
		<circle fill="#231F20" cx="0.112" cy="11.891" r="0.016"/>
		<circle fill="#231F20" cx="0.809" cy="11.891" r="0.025"/>
		<circle fill="#231F20" cx="1.507" cy="11.891" r="0.035"/>
		<circle fill="#231F20" cx="2.204" cy="11.891" r="0.046"/>
		<circle fill="#231F20" cx="2.902" cy="11.891" r="0.058"/>
		<circle fill="#231F20" cx="3.599" cy="11.891" r="0.072"/>
		<circle fill="#231F20" cx="4.297" cy="11.891" r="0.083"/>
		<circle fill="#231F20" cx="4.994" cy="11.891" r="0.095"/>
		<circle fill="#231F20" cx="5.691" cy="11.891" r="0.108"/>
		<circle fill="#231F20" cx="6.389" cy="11.891" r="0.122"/>
		<circle fill="#231F20" cx="7.086" cy="11.891" r="0.137"/>
		<circle fill="#231F20" cx="7.784" cy="11.891" r="0.151"/>
		<circle fill="#231F20" cx="8.481" cy="11.891" r="0.165"/>
		<circle fill="#231F20" cx="9.179" cy="11.891" r="0.178"/>
		<circle fill="#231F20" cx="9.876" cy="11.891" r="0.191"/>
		<circle fill="#231F20" cx="10.573" cy="11.891" r="0.205"/>
		<circle fill="#231F20" cx="11.271" cy="11.891" r="0.219"/>
		<circle fill="#231F20" cx="11.968" cy="11.891" r="0.23"/>
		<circle fill="#231F20" cx="12.666" cy="11.891" r="0.244"/>
		<circle fill="#231F20" cx="13.363" cy="11.891" r="0.253"/>
		<circle fill="#231F20" cx="14.061" cy="11.891" r="0.265"/>
		<circle fill="#231F20" cx="14.758" cy="11.891" r="0.275"/>
		<circle fill="#231F20" cx="15.456" cy="11.891" r="0.283"/>
		<circle fill="#231F20" cx="16.152" cy="11.891" r="0.289"/>
		<circle fill="#231F20" cx="16.851" cy="11.891" r="0.292"/>
		<circle fill="#231F20" cx="17.548" cy="11.891" r="0.294"/>
		<circle fill="#231F20" cx="18.245" cy="11.891" r="0.294"/>
		<circle fill="#231F20" cx="18.942" cy="11.891" r="0.29"/>
		<circle fill="#231F20" cx="19.64" cy="11.891" r="0.285"/>
		<circle fill="#231F20" cx="20.337" cy="11.891" r="0.275"/>
		<circle fill="#231F20" cx="21.035" cy="11.891" r="0.261"/>
		<circle fill="#231F20" cx="21.732" cy="11.891" r="0.244"/>
		<circle fill="#231F20" cx="22.43" cy="11.891" r="0.225"/>
		<circle fill="#231F20" cx="23.127" cy="11.891" r="0.205"/>
		<circle fill="#231F20" cx="23.824" cy="11.891" r="0.184"/>
		<circle fill="#231F20" cx="24.522" cy="11.891" r="0.167"/>
		<circle fill="#231F20" cx="25.22" cy="11.891" r="0.155"/>
		<circle fill="#231F20" cx="25.917" cy="11.891" r="0.147"/>
		<circle fill="#231F20" cx="26.614" cy="11.891" r="0.149"/>
		<circle fill="#231F20" cx="27.312" cy="11.891" r="0.161"/>
		<circle fill="#231F20" cx="28.009" cy="11.891" r="0.188"/>
		<circle fill="#231F20" cx="28.707" cy="11.891" r="0.226"/>
		<circle fill="#231F20" cx="29.404" cy="11.891" r="0.284"/>
		<path fill="#231F20" d="M29.742,11.891c0,0.163,0.109,0.295,0.258,0.34v-0.679C29.852,11.597,29.742,11.729,29.742,11.891z"/>
		<circle fill="#231F20" cx="0.461" cy="12.589" r="0.019"/>
		<circle fill="#231F20" cx="1.158" cy="12.589" r="0.029"/>
		<circle fill="#231F20" cx="1.855" cy="12.589" r="0.041"/>
		<circle fill="#231F20" cx="2.553" cy="12.589" r="0.052"/>
		<circle fill="#231F20" cx="3.25" cy="12.589" r="0.066"/>
		<circle fill="#231F20" cx="3.948" cy="12.589" r="0.077"/>
		<circle fill="#231F20" cx="4.645" cy="12.588" r="0.089"/>
		<circle fill="#231F20" cx="5.343" cy="12.589" r="0.103"/>
		<circle fill="#231F20" cx="6.04" cy="12.588" r="0.116"/>
		<circle fill="#231F20" cx="6.737" cy="12.588" r="0.129"/>
		<circle fill="#231F20" cx="7.435" cy="12.588" r="0.143"/>
		<circle fill="#231F20" cx="8.132" cy="12.588" r="0.157"/>
		<circle fill="#231F20" cx="8.83" cy="12.588" r="0.172"/>
		<circle fill="#231F20" cx="9.527" cy="12.588" r="0.184"/>
		<circle fill="#231F20" cx="10.225" cy="12.589" r="0.197"/>
		<circle fill="#231F20" cx="10.922" cy="12.589" r="0.211"/>
		<circle fill="#231F20" cx="11.619" cy="12.589" r="0.224"/>
		<circle fill="#231F20" cx="12.317" cy="12.589" r="0.236"/>
		<circle fill="#231F20" cx="13.014" cy="12.589" r="0.249"/>
		<circle fill="#231F20" cx="13.712" cy="12.589" r="0.259"/>
		<circle fill="#231F20" cx="14.409" cy="12.589" r="0.269"/>
		<circle fill="#231F20" cx="15.107" cy="12.589" r="0.279"/>
		<circle fill="#231F20" cx="15.804" cy="12.589" r="0.286"/>
		<circle fill="#231F20" cx="16.501" cy="12.589" r="0.291"/>
		<circle fill="#231F20" cx="17.199" cy="12.589" r="0.294"/>
		<circle fill="#231F20" cx="17.896" cy="12.589" r="0.294"/>
		<circle fill="#231F20" cx="18.594" cy="12.589" r="0.292"/>
		<circle fill="#231F20" cx="19.291" cy="12.589" r="0.288"/>
		<circle fill="#231F20" cx="19.989" cy="12.589" r="0.281"/>
		<circle fill="#231F20" cx="20.686" cy="12.589" r="0.269"/>
		<circle fill="#231F20" cx="21.383" cy="12.589" r="0.253"/>
		<circle fill="#231F20" cx="22.081" cy="12.589" r="0.236"/>
		<circle fill="#231F20" cx="22.778" cy="12.589" r="0.215"/>
		<circle fill="#231F20" cx="23.476" cy="12.589" r="0.193"/>
		<circle fill="#231F20" cx="24.173" cy="12.588" r="0.174"/>
		<circle fill="#231F20" cx="24.871" cy="12.588" r="0.159"/>
		<circle fill="#231F20" cx="25.568" cy="12.588" r="0.151"/>
		<circle fill="#231F20" cx="26.266" cy="12.588" r="0.147"/>
		<circle fill="#231F20" cx="26.963" cy="12.588" r="0.155"/>
		<circle fill="#231F20" cx="27.66" cy="12.588" r="0.172"/>
		<circle fill="#231F20" cx="28.357" cy="12.589" r="0.205"/>
		<circle fill="#231F20" cx="29.055" cy="12.589" r="0.253"/>
		<path fill="#231F20" d="M29.753,12.27c-0.177,0-0.319,0.143-0.319,0.319c0,0.176,0.143,0.318,0.319,0.318
			c0.108,0,0.189-0.063,0.247-0.146v-0.347C29.942,12.332,29.861,12.27,29.753,12.27z"/>
		<circle fill="#231F20" cx="0.112" cy="13.286" r="0.016"/>
		<circle fill="#231F20" cx="0.809" cy="13.286" r="0.025"/>
		<circle fill="#231F20" cx="1.507" cy="13.286" r="0.035"/>
		<circle fill="#231F20" cx="2.204" cy="13.286" r="0.046"/>
		<circle fill="#231F20" cx="2.902" cy="13.286" r="0.058"/>
		<circle fill="#231F20" cx="3.599" cy="13.286" r="0.072"/>
		<circle fill="#231F20" cx="4.297" cy="13.286" r="0.083"/>
		<circle fill="#231F20" cx="4.994" cy="13.286" r="0.095"/>
		<circle fill="#231F20" cx="5.691" cy="13.286" r="0.108"/>
		<circle fill="#231F20" cx="6.389" cy="13.286" r="0.122"/>
		<circle fill="#231F20" cx="7.086" cy="13.286" r="0.137"/>
		<circle fill="#231F20" cx="7.784" cy="13.286" r="0.151"/>
		<circle fill="#231F20" cx="8.481" cy="13.286" r="0.165"/>
		<circle fill="#231F20" cx="9.179" cy="13.286" r="0.178"/>
		<circle fill="#231F20" cx="9.876" cy="13.286" r="0.191"/>
		<circle fill="#231F20" cx="10.573" cy="13.286" r="0.205"/>
		<circle fill="#231F20" cx="11.271" cy="13.286" r="0.219"/>
		<circle fill="#231F20" cx="11.968" cy="13.286" r="0.23"/>
		<circle fill="#231F20" cx="12.666" cy="13.286" r="0.244"/>
		<circle fill="#231F20" cx="13.363" cy="13.286" r="0.253"/>
		<circle fill="#231F20" cx="14.061" cy="13.286" r="0.265"/>
		<circle fill="#231F20" cx="14.758" cy="13.286" r="0.274"/>
		<circle fill="#231F20" cx="15.456" cy="13.286" r="0.282"/>
		<circle fill="#231F20" cx="16.152" cy="13.286" r="0.288"/>
		<circle fill="#231F20" cx="16.851" cy="13.286" r="0.292"/>
		<circle fill="#231F20" cx="17.548" cy="13.286" r="0.294"/>
		<circle fill="#231F20" cx="18.245" cy="13.286" r="0.294"/>
		<circle fill="#231F20" cx="18.942" cy="13.286" r="0.29"/>
		<circle fill="#231F20" cx="19.64" cy="13.286" r="0.284"/>
		<circle fill="#231F20" cx="20.337" cy="13.286" r="0.274"/>
		<circle fill="#231F20" cx="21.035" cy="13.286" r="0.261"/>
		<circle fill="#231F20" cx="21.732" cy="13.286" r="0.244"/>
		<circle fill="#231F20" cx="22.43" cy="13.286" r="0.225"/>
		<circle fill="#231F20" cx="23.127" cy="13.286" r="0.205"/>
		<circle fill="#231F20" cx="23.824" cy="13.286" r="0.184"/>
		<circle fill="#231F20" cx="24.522" cy="13.286" r="0.167"/>
		<circle fill="#231F20" cx="25.22" cy="13.286" r="0.155"/>
		<circle fill="#231F20" cx="25.917" cy="13.286" r="0.147"/>
		<circle fill="#231F20" cx="26.614" cy="13.286" r="0.149"/>
		<circle fill="#231F20" cx="27.312" cy="13.286" r="0.161"/>
		<circle fill="#231F20" cx="28.009" cy="13.286" r="0.188"/>
		<circle fill="#231F20" cx="28.707" cy="13.286" r="0.226"/>
		<circle fill="#231F20" cx="29.404" cy="13.286" r="0.284"/>
		<path fill="#231F20" d="M29.742,13.286c0,0.162,0.109,0.295,0.258,0.339v-0.679C29.852,12.991,29.742,13.123,29.742,13.286z"/>
		<circle fill="#231F20" cx="0.461" cy="13.983" r="0.019"/>
		<circle fill="#231F20" cx="1.158" cy="13.983" r="0.029"/>
		<circle fill="#231F20" cx="1.855" cy="13.983" r="0.041"/>
		<circle fill="#231F20" cx="2.553" cy="13.983" r="0.052"/>
		<circle fill="#231F20" cx="3.25" cy="13.983" r="0.066"/>
		<circle fill="#231F20" cx="3.948" cy="13.983" r="0.077"/>
		<circle fill="#231F20" cx="4.645" cy="13.983" r="0.089"/>
		<circle fill="#231F20" cx="5.343" cy="13.983" r="0.103"/>
		<circle fill="#231F20" cx="6.04" cy="13.983" r="0.116"/>
		<circle fill="#231F20" cx="6.737" cy="13.983" r="0.13"/>
		<circle fill="#231F20" cx="7.435" cy="13.983" r="0.143"/>
		<circle fill="#231F20" cx="8.132" cy="13.983" r="0.156"/>
		<circle fill="#231F20" cx="8.83" cy="13.983" r="0.172"/>
		<circle fill="#231F20" cx="9.527" cy="13.983" r="0.184"/>
		<circle fill="#231F20" cx="10.225" cy="13.983" r="0.197"/>
		<circle fill="#231F20" cx="10.922" cy="13.983" r="0.211"/>
		<circle fill="#231F20" cx="11.619" cy="13.983" r="0.224"/>
		<circle fill="#231F20" cx="12.317" cy="13.983" r="0.236"/>
		<circle fill="#231F20" cx="13.014" cy="13.983" r="0.249"/>
		<circle fill="#231F20" cx="13.712" cy="13.983" r="0.259"/>
		<circle fill="#231F20" cx="14.409" cy="13.983" r="0.269"/>
		<circle fill="#231F20" cx="15.107" cy="13.983" r="0.279"/>
		<circle fill="#231F20" cx="15.804" cy="13.983" r="0.286"/>
		<circle fill="#231F20" cx="16.501" cy="13.983" r="0.291"/>
		<circle fill="#231F20" cx="17.199" cy="13.983" r="0.294"/>
		<circle fill="#231F20" cx="17.896" cy="13.983" r="0.294"/>
		<circle fill="#231F20" cx="18.594" cy="13.983" r="0.292"/>
		<circle fill="#231F20" cx="19.291" cy="13.983" r="0.288"/>
		<circle fill="#231F20" cx="19.989" cy="13.983" r="0.281"/>
		<circle fill="#231F20" cx="20.686" cy="13.983" r="0.269"/>
		<circle fill="#231F20" cx="21.383" cy="13.983" r="0.253"/>
		<circle fill="#231F20" cx="22.081" cy="13.983" r="0.236"/>
		<circle fill="#231F20" cx="22.778" cy="13.983" r="0.215"/>
		<circle fill="#231F20" cx="23.476" cy="13.983" r="0.193"/>
		<circle fill="#231F20" cx="24.173" cy="13.983" r="0.174"/>
		<circle fill="#231F20" cx="24.871" cy="13.983" r="0.159"/>
		<circle fill="#231F20" cx="25.568" cy="13.983" r="0.151"/>
		<circle fill="#231F20" cx="26.266" cy="13.983" r="0.147"/>
		<circle fill="#231F20" cx="26.963" cy="13.983" r="0.155"/>
		<circle fill="#231F20" cx="27.66" cy="13.983" r="0.172"/>
		<circle fill="#231F20" cx="28.357" cy="13.983" r="0.205"/>
		<circle fill="#231F20" cx="29.055" cy="13.983" r="0.253"/>
		<path fill="#231F20" d="M29.753,13.664c-0.177,0-0.319,0.143-0.319,0.319c0,0.176,0.143,0.319,0.319,0.319
			c0.108,0,0.189-0.063,0.247-0.146V13.81C29.942,13.728,29.861,13.664,29.753,13.664z"/>
		<circle fill="#231F20" cx="0.112" cy="14.681" r="0.016"/>
		<circle fill="#231F20" cx="0.809" cy="14.681" r="0.025"/>
		<circle fill="#231F20" cx="1.507" cy="14.681" r="0.035"/>
		<circle fill="#231F20" cx="2.204" cy="14.681" r="0.046"/>
		<circle fill="#231F20" cx="2.902" cy="14.681" r="0.058"/>
		<circle fill="#231F20" cx="3.599" cy="14.681" r="0.072"/>
		<circle fill="#231F20" cx="4.297" cy="14.681" r="0.083"/>
		<circle fill="#231F20" cx="4.994" cy="14.681" r="0.095"/>
		<circle fill="#231F20" cx="5.691" cy="14.681" r="0.108"/>
		<circle fill="#231F20" cx="6.389" cy="14.681" r="0.122"/>
		<circle fill="#231F20" cx="7.086" cy="14.681" r="0.137"/>
		<circle fill="#231F20" cx="7.784" cy="14.681" r="0.151"/>
		<circle fill="#231F20" cx="8.481" cy="14.681" r="0.164"/>
		<circle fill="#231F20" cx="9.179" cy="14.681" r="0.178"/>
		<circle fill="#231F20" cx="9.876" cy="14.681" r="0.191"/>
		<circle fill="#231F20" cx="10.573" cy="14.681" r="0.205"/>
		<circle fill="#231F20" cx="11.271" cy="14.681" r="0.219"/>
		<circle fill="#231F20" cx="11.968" cy="14.681" r="0.23"/>
		<circle fill="#231F20" cx="12.666" cy="14.681" r="0.244"/>
		<circle fill="#231F20" cx="13.363" cy="14.681" r="0.253"/>
		<circle fill="#231F20" cx="14.061" cy="14.681" r="0.265"/>
		<circle fill="#231F20" cx="14.758" cy="14.681" r="0.274"/>
		<circle fill="#231F20" cx="15.456" cy="14.681" r="0.282"/>
		<circle fill="#231F20" cx="16.152" cy="14.681" r="0.288"/>
		<circle fill="#231F20" cx="16.851" cy="14.681" r="0.292"/>
		<circle fill="#231F20" cx="17.548" cy="14.681" r="0.294"/>
		<circle fill="#231F20" cx="18.245" cy="14.681" r="0.294"/>
		<circle fill="#231F20" cx="18.942" cy="14.681" r="0.29"/>
		<circle fill="#231F20" cx="19.64" cy="14.681" r="0.284"/>
		<circle fill="#231F20" cx="20.337" cy="14.681" r="0.274"/>
		<circle fill="#231F20" cx="21.035" cy="14.681" r="0.261"/>
		<circle fill="#231F20" cx="21.732" cy="14.681" r="0.244"/>
		<circle fill="#231F20" cx="22.43" cy="14.681" r="0.225"/>
		<circle fill="#231F20" cx="23.127" cy="14.681" r="0.205"/>
		<circle fill="#231F20" cx="23.824" cy="14.681" r="0.184"/>
		<circle fill="#231F20" cx="24.522" cy="14.681" r="0.166"/>
		<circle fill="#231F20" cx="25.22" cy="14.681" r="0.154"/>
		<circle fill="#231F20" cx="25.917" cy="14.681" r="0.147"/>
		<circle fill="#231F20" cx="26.614" cy="14.681" r="0.149"/>
		<circle fill="#231F20" cx="27.312" cy="14.681" r="0.16"/>
		<circle fill="#231F20" cx="28.009" cy="14.681" r="0.188"/>
		<circle fill="#231F20" cx="28.707" cy="14.681" r="0.226"/>
		<circle fill="#231F20" cx="29.404" cy="14.681" r="0.284"/>
		<path fill="#231F20" d="M29.742,14.681c0,0.163,0.109,0.295,0.258,0.339v-0.678C29.852,14.386,29.742,14.519,29.742,14.681z"/>
		<circle fill="#231F20" cx="0.461" cy="15.378" r="0.019"/>
		<circle fill="#231F20" cx="1.158" cy="15.378" r="0.029"/>
		<circle fill="#231F20" cx="1.855" cy="15.378" r="0.041"/>
		<circle fill="#231F20" cx="2.553" cy="15.378" r="0.052"/>
		<circle fill="#231F20" cx="3.25" cy="15.378" r="0.066"/>
		<circle fill="#231F20" cx="3.948" cy="15.378" r="0.077"/>
		<circle fill="#231F20" cx="4.645" cy="15.378" r="0.089"/>
		<circle fill="#231F20" cx="5.343" cy="15.378" r="0.103"/>
		<circle fill="#231F20" cx="6.04" cy="15.378" r="0.116"/>
		<circle fill="#231F20" cx="6.737" cy="15.378" r="0.129"/>
		<circle fill="#231F20" cx="7.435" cy="15.378" r="0.143"/>
		<circle fill="#231F20" cx="8.132" cy="15.378" r="0.157"/>
		<circle fill="#231F20" cx="8.83" cy="15.378" r="0.172"/>
		<circle fill="#231F20" cx="9.527" cy="15.378" r="0.184"/>
		<circle fill="#231F20" cx="10.225" cy="15.378" r="0.197"/>
		<circle fill="#231F20" cx="10.922" cy="15.378" r="0.211"/>
		<circle fill="#231F20" cx="11.619" cy="15.378" r="0.224"/>
		<circle fill="#231F20" cx="12.317" cy="15.378" r="0.236"/>
		<circle fill="#231F20" cx="13.014" cy="15.378" r="0.249"/>
		<circle fill="#231F20" cx="13.712" cy="15.378" r="0.259"/>
		<circle fill="#231F20" cx="14.409" cy="15.378" r="0.269"/>
		<circle fill="#231F20" cx="15.107" cy="15.378" r="0.279"/>
		<circle fill="#231F20" cx="15.804" cy="15.378" r="0.286"/>
		<circle fill="#231F20" cx="16.501" cy="15.378" r="0.291"/>
		<circle fill="#231F20" cx="17.199" cy="15.378" r="0.294"/>
		<circle fill="#231F20" cx="17.896" cy="15.378" r="0.294"/>
		<circle fill="#231F20" cx="18.594" cy="15.378" r="0.292"/>
		<circle fill="#231F20" cx="19.291" cy="15.378" r="0.288"/>
		<circle fill="#231F20" cx="19.989" cy="15.378" r="0.281"/>
		<circle fill="#231F20" cx="20.686" cy="15.378" r="0.269"/>
		<circle fill="#231F20" cx="21.383" cy="15.378" r="0.253"/>
		<circle fill="#231F20" cx="22.081" cy="15.378" r="0.236"/>
		<circle fill="#231F20" cx="22.778" cy="15.378" r="0.215"/>
		<circle fill="#231F20" cx="23.476" cy="15.378" r="0.193"/>
		<circle fill="#231F20" cx="24.173" cy="15.378" r="0.174"/>
		<circle fill="#231F20" cx="24.871" cy="15.378" r="0.159"/>
		<circle fill="#231F20" cx="25.568" cy="15.378" r="0.151"/>
		<circle fill="#231F20" cx="26.266" cy="15.378" r="0.147"/>
		<circle fill="#231F20" cx="26.963" cy="15.378" r="0.155"/>
		<circle fill="#231F20" cx="27.66" cy="15.378" r="0.172"/>
		<circle fill="#231F20" cx="28.357" cy="15.378" r="0.205"/>
		<circle fill="#231F20" cx="29.055" cy="15.378" r="0.253"/>
		<path fill="#231F20" d="M29.753,15.06c-0.177,0-0.319,0.143-0.319,0.318c0,0.177,0.143,0.319,0.319,0.319
			c0.108,0,0.189-0.063,0.247-0.146v-0.347C29.942,15.122,29.861,15.06,29.753,15.06z"/>
		<circle fill="#231F20" cx="0.112" cy="16.075" r="0.016"/>
		<circle fill="#231F20" cx="0.809" cy="16.075" r="0.025"/>
		<circle fill="#231F20" cx="1.507" cy="16.075" r="0.035"/>
		<circle fill="#231F20" cx="2.204" cy="16.075" r="0.046"/>
		<circle fill="#231F20" cx="2.902" cy="16.075" r="0.058"/>
		<circle fill="#231F20" cx="3.599" cy="16.075" r="0.072"/>
		<circle fill="#231F20" cx="4.297" cy="16.075" r="0.083"/>
		<circle fill="#231F20" cx="4.994" cy="16.075" r="0.095"/>
		<circle fill="#231F20" cx="5.691" cy="16.076" r="0.108"/>
		<circle fill="#231F20" cx="6.389" cy="16.076" r="0.122"/>
		<circle fill="#231F20" cx="7.086" cy="16.076" r="0.137"/>
		<circle fill="#231F20" cx="7.784" cy="16.076" r="0.151"/>
		<circle fill="#231F20" cx="8.481" cy="16.076" r="0.165"/>
		<circle fill="#231F20" cx="9.179" cy="16.076" r="0.178"/>
		<circle fill="#231F20" cx="9.876" cy="16.076" r="0.192"/>
		<circle fill="#231F20" cx="10.573" cy="16.075" r="0.205"/>
		<circle fill="#231F20" cx="11.271" cy="16.076" r="0.218"/>
		<circle fill="#231F20" cx="11.968" cy="16.076" r="0.23"/>
		<circle fill="#231F20" cx="12.666" cy="16.076" r="0.244"/>
		<circle fill="#231F20" cx="13.363" cy="16.076" r="0.253"/>
		<circle fill="#231F20" cx="14.061" cy="16.076" r="0.265"/>
		<circle fill="#231F20" cx="14.758" cy="16.076" r="0.275"/>
		<circle fill="#231F20" cx="15.456" cy="16.076" r="0.283"/>
		<circle fill="#231F20" cx="16.152" cy="16.076" r="0.289"/>
		<circle fill="#231F20" cx="16.851" cy="16.076" r="0.292"/>
		<circle fill="#231F20" cx="17.548" cy="16.075" r="0.294"/>
		<circle fill="#231F20" cx="18.245" cy="16.075" r="0.294"/>
		<circle fill="#231F20" cx="18.942" cy="16.075" r="0.29"/>
		<circle fill="#231F20" cx="19.64" cy="16.076" r="0.285"/>
		<circle fill="#231F20" cx="20.337" cy="16.076" r="0.275"/>
		<circle fill="#231F20" cx="21.035" cy="16.076" r="0.261"/>
		<circle fill="#231F20" cx="21.732" cy="16.076" r="0.244"/>
		<circle fill="#231F20" cx="22.43" cy="16.076" r="0.224"/>
		<circle fill="#231F20" cx="23.127" cy="16.075" r="0.205"/>
		<circle fill="#231F20" cx="23.824" cy="16.076" r="0.184"/>
		<circle fill="#231F20" cx="24.522" cy="16.076" r="0.167"/>
		<circle fill="#231F20" cx="25.22" cy="16.076" r="0.155"/>
		<circle fill="#231F20" cx="25.917" cy="16.076" r="0.147"/>
		<circle fill="#231F20" cx="26.614" cy="16.076" r="0.149"/>
		<circle fill="#231F20" cx="27.312" cy="16.076" r="0.161"/>
		<circle fill="#231F20" cx="28.009" cy="16.076" r="0.188"/>
		<circle fill="#231F20" cx="28.707" cy="16.075" r="0.226"/>
		<circle fill="#231F20" cx="29.404" cy="16.075" r="0.284"/>
		<path fill="#231F20" d="M29.742,16.075c0,0.163,0.109,0.295,0.258,0.34v-0.679C29.852,15.781,29.742,15.913,29.742,16.075z"/>
		<circle fill="#231F20" cx="0.461" cy="16.773" r="0.019"/>
		<circle fill="#231F20" cx="1.158" cy="16.773" r="0.029"/>
		<circle fill="#231F20" cx="1.855" cy="16.773" r="0.041"/>
		<circle fill="#231F20" cx="2.553" cy="16.773" r="0.052"/>
		<circle fill="#231F20" cx="3.25" cy="16.773" r="0.066"/>
		<circle fill="#231F20" cx="3.948" cy="16.773" r="0.077"/>
		<circle fill="#231F20" cx="4.645" cy="16.773" r="0.089"/>
		<circle fill="#231F20" cx="5.343" cy="16.773" r="0.103"/>
		<circle fill="#231F20" cx="6.04" cy="16.773" r="0.116"/>
		<circle fill="#231F20" cx="6.737" cy="16.773" r="0.129"/>
		<circle fill="#231F20" cx="7.435" cy="16.773" r="0.143"/>
		<circle fill="#231F20" cx="8.132" cy="16.773" r="0.157"/>
		<circle fill="#231F20" cx="8.83" cy="16.773" r="0.172"/>
		<circle fill="#231F20" cx="9.527" cy="16.773" r="0.184"/>
		<circle fill="#231F20" cx="10.225" cy="16.773" r="0.197"/>
		<circle fill="#231F20" cx="10.922" cy="16.773" r="0.211"/>
		<circle fill="#231F20" cx="11.619" cy="16.773" r="0.224"/>
		<circle fill="#231F20" cx="12.317" cy="16.773" r="0.236"/>
		<circle fill="#231F20" cx="13.014" cy="16.773" r="0.249"/>
		<circle fill="#231F20" cx="13.712" cy="16.773" r="0.259"/>
		<circle fill="#231F20" cx="14.409" cy="16.773" r="0.269"/>
		<circle fill="#231F20" cx="15.107" cy="16.773" r="0.279"/>
		<circle fill="#231F20" cx="15.804" cy="16.773" r="0.286"/>
		<circle fill="#231F20" cx="16.501" cy="16.773" r="0.291"/>
		<circle fill="#231F20" cx="17.199" cy="16.773" r="0.294"/>
		<circle fill="#231F20" cx="17.896" cy="16.773" r="0.294"/>
		<circle fill="#231F20" cx="18.594" cy="16.773" r="0.292"/>
		<circle fill="#231F20" cx="19.291" cy="16.773" r="0.288"/>
		<circle fill="#231F20" cx="19.989" cy="16.773" r="0.281"/>
		<circle fill="#231F20" cx="20.686" cy="16.773" r="0.269"/>
		<circle fill="#231F20" cx="21.383" cy="16.773" r="0.253"/>
		<circle fill="#231F20" cx="22.081" cy="16.773" r="0.236"/>
		<circle fill="#231F20" cx="22.778" cy="16.773" r="0.215"/>
		<circle fill="#231F20" cx="23.476" cy="16.773" r="0.193"/>
		<circle fill="#231F20" cx="24.173" cy="16.773" r="0.174"/>
		<circle fill="#231F20" cx="24.871" cy="16.773" r="0.159"/>
		<circle fill="#231F20" cx="25.568" cy="16.773" r="0.151"/>
		<circle fill="#231F20" cx="26.266" cy="16.773" r="0.147"/>
		<circle fill="#231F20" cx="26.963" cy="16.773" r="0.155"/>
		<circle fill="#231F20" cx="27.66" cy="16.773" r="0.172"/>
		<circle fill="#231F20" cx="28.357" cy="16.773" r="0.205"/>
		<circle fill="#231F20" cx="29.055" cy="16.773" r="0.253"/>
		<path fill="#231F20" d="M29.753,16.454c-0.177,0-0.319,0.143-0.319,0.319c0,0.176,0.143,0.318,0.319,0.318
			c0.108,0,0.189-0.063,0.247-0.146V16.6C29.942,16.517,29.861,16.454,29.753,16.454z"/>
		<circle fill="#231F20" cx="0.112" cy="17.471" r="0.016"/>
		<circle fill="#231F20" cx="0.809" cy="17.471" r="0.025"/>
		<circle fill="#231F20" cx="1.507" cy="17.471" r="0.035"/>
		<circle fill="#231F20" cx="2.204" cy="17.471" r="0.046"/>
		<circle fill="#231F20" cx="2.902" cy="17.471" r="0.058"/>
		<circle fill="#231F20" cx="3.599" cy="17.471" r="0.072"/>
		<circle fill="#231F20" cx="4.297" cy="17.471" r="0.083"/>
		<circle fill="#231F20" cx="4.994" cy="17.471" r="0.095"/>
		<circle fill="#231F20" cx="5.691" cy="17.471" r="0.108"/>
		<circle fill="#231F20" cx="6.389" cy="17.471" r="0.122"/>
		<circle fill="#231F20" cx="7.086" cy="17.47" r="0.137"/>
		<circle fill="#231F20" cx="7.784" cy="17.47" r="0.151"/>
		<circle fill="#231F20" cx="8.481" cy="17.47" r="0.165"/>
		<circle fill="#231F20" cx="9.179" cy="17.471" r="0.178"/>
		<circle fill="#231F20" cx="9.876" cy="17.471" r="0.191"/>
		<circle fill="#231F20" cx="10.573" cy="17.471" r="0.205"/>
		<circle fill="#231F20" cx="11.271" cy="17.471" r="0.219"/>
		<circle fill="#231F20" cx="11.968" cy="17.47" r="0.23"/>
		<circle fill="#231F20" cx="12.666" cy="17.47" r="0.244"/>
		<circle fill="#231F20" cx="13.363" cy="17.47" r="0.253"/>
		<circle fill="#231F20" cx="14.061" cy="17.47" r="0.265"/>
		<circle fill="#231F20" cx="14.758" cy="17.471" r="0.274"/>
		<circle fill="#231F20" cx="15.456" cy="17.471" r="0.282"/>
		<circle fill="#231F20" cx="16.152" cy="17.471" r="0.288"/>
		<circle fill="#231F20" cx="16.851" cy="17.471" r="0.292"/>
		<circle fill="#231F20" cx="17.548" cy="17.471" r="0.294"/>
		<circle fill="#231F20" cx="18.245" cy="17.471" r="0.294"/>
		<circle fill="#231F20" cx="18.942" cy="17.471" r="0.29"/>
		<circle fill="#231F20" cx="19.64" cy="17.471" r="0.284"/>
		<circle fill="#231F20" cx="20.337" cy="17.471" r="0.274"/>
		<circle fill="#231F20" cx="21.035" cy="17.47" r="0.261"/>
		<circle fill="#231F20" cx="21.732" cy="17.47" r="0.244"/>
		<circle fill="#231F20" cx="22.43" cy="17.47" r="0.224"/>
		<circle fill="#231F20" cx="23.127" cy="17.471" r="0.205"/>
		<circle fill="#231F20" cx="23.824" cy="17.471" r="0.184"/>
		<circle fill="#231F20" cx="24.522" cy="17.47" r="0.167"/>
		<circle fill="#231F20" cx="25.22" cy="17.47" r="0.155"/>
		<circle fill="#231F20" cx="25.917" cy="17.47" r="0.147"/>
		<circle fill="#231F20" cx="26.614" cy="17.47" r="0.149"/>
		<circle fill="#231F20" cx="27.312" cy="17.47" r="0.161"/>
		<circle fill="#231F20" cx="28.009" cy="17.471" r="0.188"/>
		<circle fill="#231F20" cx="28.707" cy="17.471" r="0.226"/>
		<circle fill="#231F20" cx="29.404" cy="17.471" r="0.284"/>
		<path fill="#231F20" d="M29.742,17.471c0,0.162,0.109,0.295,0.258,0.339v-0.679C29.852,17.176,29.742,17.308,29.742,17.471z"/>
		<circle fill="#231F20" cx="0.461" cy="18.168" r="0.019"/>
		<circle fill="#231F20" cx="1.158" cy="18.168" r="0.029"/>
		<circle fill="#231F20" cx="1.855" cy="18.168" r="0.041"/>
		<circle fill="#231F20" cx="2.553" cy="18.168" r="0.052"/>
		<circle fill="#231F20" cx="3.25" cy="18.168" r="0.066"/>
		<circle fill="#231F20" cx="3.948" cy="18.168" r="0.077"/>
		<circle fill="#231F20" cx="4.645" cy="18.168" r="0.089"/>
		<circle fill="#231F20" cx="5.343" cy="18.168" r="0.103"/>
		<circle fill="#231F20" cx="6.04" cy="18.168" r="0.116"/>
		<circle fill="#231F20" cx="6.737" cy="18.168" r="0.13"/>
		<circle fill="#231F20" cx="7.435" cy="18.167" r="0.143"/>
		<circle fill="#231F20" cx="8.132" cy="18.168" r="0.156"/>
		<circle fill="#231F20" cx="8.83" cy="18.168" r="0.172"/>
		<circle fill="#231F20" cx="9.527" cy="18.168" r="0.184"/>
		<circle fill="#231F20" cx="10.225" cy="18.168" r="0.197"/>
		<circle fill="#231F20" cx="10.922" cy="18.168" r="0.211"/>
		<circle fill="#231F20" cx="11.619" cy="18.168" r="0.224"/>
		<circle fill="#231F20" cx="12.317" cy="18.168" r="0.236"/>
		<circle fill="#231F20" cx="13.014" cy="18.168" r="0.249"/>
		<circle fill="#231F20" cx="13.712" cy="18.168" r="0.259"/>
		<circle fill="#231F20" cx="14.409" cy="18.168" r="0.269"/>
		<circle fill="#231F20" cx="15.107" cy="18.168" r="0.279"/>
		<circle fill="#231F20" cx="15.804" cy="18.168" r="0.286"/>
		<circle fill="#231F20" cx="16.501" cy="18.168" r="0.291"/>
		<circle fill="#231F20" cx="17.199" cy="18.168" r="0.294"/>
		<circle fill="#231F20" cx="17.896" cy="18.168" r="0.294"/>
		<circle fill="#231F20" cx="18.594" cy="18.168" r="0.292"/>
		<circle fill="#231F20" cx="19.291" cy="18.168" r="0.288"/>
		<circle fill="#231F20" cx="19.989" cy="18.168" r="0.281"/>
		<circle fill="#231F20" cx="20.686" cy="18.168" r="0.269"/>
		<circle fill="#231F20" cx="21.383" cy="18.168" r="0.253"/>
		<circle fill="#231F20" cx="22.081" cy="18.168" r="0.236"/>
		<circle fill="#231F20" cx="22.778" cy="18.168" r="0.215"/>
		<circle fill="#231F20" cx="23.476" cy="18.168" r="0.193"/>
		<circle fill="#231F20" cx="24.173" cy="18.168" r="0.174"/>
		<circle fill="#231F20" cx="24.871" cy="18.168" r="0.158"/>
		<circle fill="#231F20" cx="25.568" cy="18.168" r="0.15"/>
		<circle fill="#231F20" cx="26.266" cy="18.167" r="0.147"/>
		<circle fill="#231F20" cx="26.963" cy="18.168" r="0.154"/>
		<circle fill="#231F20" cx="27.66" cy="18.168" r="0.172"/>
		<circle fill="#231F20" cx="28.357" cy="18.168" r="0.205"/>
		<circle fill="#231F20" cx="29.055" cy="18.168" r="0.253"/>
		<path fill="#231F20" d="M29.753,17.849c-0.177,0-0.319,0.144-0.319,0.319s0.143,0.319,0.319,0.319
			c0.108,0,0.189-0.063,0.247-0.146v-0.348C29.942,17.912,29.861,17.849,29.753,17.849z"/>
		<circle fill="#231F20" cx="0.112" cy="18.865" r="0.016"/>
		<circle fill="#231F20" cx="0.809" cy="18.865" r="0.025"/>
		<circle fill="#231F20" cx="1.507" cy="18.865" r="0.035"/>
		<circle fill="#231F20" cx="2.204" cy="18.865" r="0.046"/>
		<circle fill="#231F20" cx="2.902" cy="18.865" r="0.058"/>
		<circle fill="#231F20" cx="3.599" cy="18.865" r="0.072"/>
		<circle fill="#231F20" cx="4.297" cy="18.865" r="0.083"/>
		<circle fill="#231F20" cx="4.994" cy="18.865" r="0.095"/>
		<circle fill="#231F20" cx="5.691" cy="18.865" r="0.108"/>
		<circle fill="#231F20" cx="6.389" cy="18.865" r="0.122"/>
		<circle fill="#231F20" cx="7.086" cy="18.865" r="0.138"/>
		<circle fill="#231F20" cx="7.784" cy="18.866" r="0.151"/>
		<circle fill="#231F20" cx="8.481" cy="18.865" r="0.164"/>
		<circle fill="#231F20" cx="9.179" cy="18.865" r="0.178"/>
		<circle fill="#231F20" cx="9.876" cy="18.865" r="0.191"/>
		<circle fill="#231F20" cx="10.573" cy="18.865" r="0.205"/>
		<circle fill="#231F20" cx="11.271" cy="18.865" r="0.219"/>
		<circle fill="#231F20" cx="11.968" cy="18.865" r="0.23"/>
		<circle fill="#231F20" cx="12.666" cy="18.866" r="0.244"/>
		<circle fill="#231F20" cx="13.363" cy="18.866" r="0.253"/>
		<circle fill="#231F20" cx="14.061" cy="18.865" r="0.265"/>
		<circle fill="#231F20" cx="14.758" cy="18.865" r="0.274"/>
		<circle fill="#231F20" cx="15.456" cy="18.865" r="0.282"/>
		<circle fill="#231F20" cx="16.152" cy="18.865" r="0.288"/>
		<circle fill="#231F20" cx="16.851" cy="18.865" r="0.292"/>
		<circle fill="#231F20" cx="17.548" cy="18.865" r="0.294"/>
		<circle fill="#231F20" cx="18.245" cy="18.865" r="0.294"/>
		<circle fill="#231F20" cx="18.942" cy="18.865" r="0.29"/>
		<circle fill="#231F20" cx="19.64" cy="18.865" r="0.284"/>
		<circle fill="#231F20" cx="20.337" cy="18.865" r="0.274"/>
		<circle fill="#231F20" cx="21.035" cy="18.866" r="0.261"/>
		<circle fill="#231F20" cx="21.732" cy="18.866" r="0.244"/>
		<circle fill="#231F20" cx="22.43" cy="18.865" r="0.225"/>
		<circle fill="#231F20" cx="23.127" cy="18.865" r="0.205"/>
		<circle fill="#231F20" cx="23.824" cy="18.865" r="0.184"/>
		<circle fill="#231F20" cx="24.522" cy="18.865" r="0.166"/>
		<circle fill="#231F20" cx="25.22" cy="18.866" r="0.155"/>
		<circle fill="#231F20" cx="25.917" cy="18.866" r="0.147"/>
		<circle fill="#231F20" cx="26.614" cy="18.866" r="0.149"/>
		<circle fill="#231F20" cx="27.312" cy="18.866" r="0.161"/>
		<circle fill="#231F20" cx="28.009" cy="18.865" r="0.188"/>
		<circle fill="#231F20" cx="28.707" cy="18.865" r="0.227"/>
		<circle fill="#231F20" cx="29.404" cy="18.865" r="0.284"/>
		<path fill="#231F20" d="M29.742,18.865c0,0.163,0.109,0.295,0.258,0.339v-0.678C29.852,18.57,29.742,18.703,29.742,18.865z"/>
		<circle fill="#231F20" cx="0.461" cy="19.563" r="0.019"/>
		<circle fill="#231F20" cx="1.158" cy="19.563" r="0.029"/>
		<circle fill="#231F20" cx="1.855" cy="19.563" r="0.041"/>
		<circle fill="#231F20" cx="2.553" cy="19.563" r="0.052"/>
		<circle fill="#231F20" cx="3.25" cy="19.563" r="0.066"/>
		<circle fill="#231F20" cx="3.948" cy="19.563" r="0.077"/>
		<circle fill="#231F20" cx="4.645" cy="19.563" r="0.089"/>
		<circle fill="#231F20" cx="5.343" cy="19.563" r="0.103"/>
		<circle fill="#231F20" cx="6.04" cy="19.563" r="0.116"/>
		<circle fill="#231F20" cx="6.737" cy="19.563" r="0.129"/>
		<circle fill="#231F20" cx="7.435" cy="19.563" r="0.143"/>
		<circle fill="#231F20" cx="8.132" cy="19.563" r="0.157"/>
		<circle fill="#231F20" cx="8.83" cy="19.563" r="0.172"/>
		<circle fill="#231F20" cx="9.527" cy="19.563" r="0.184"/>
		<circle fill="#231F20" cx="10.225" cy="19.563" r="0.197"/>
		<circle fill="#231F20" cx="10.922" cy="19.563" r="0.211"/>
		<circle fill="#231F20" cx="11.619" cy="19.563" r="0.224"/>
		<circle fill="#231F20" cx="12.317" cy="19.563" r="0.236"/>
		<circle fill="#231F20" cx="13.014" cy="19.563" r="0.249"/>
		<circle fill="#231F20" cx="13.712" cy="19.563" r="0.259"/>
		<circle fill="#231F20" cx="14.409" cy="19.563" r="0.269"/>
		<circle fill="#231F20" cx="15.107" cy="19.563" r="0.279"/>
		<circle fill="#231F20" cx="15.804" cy="19.563" r="0.286"/>
		<circle fill="#231F20" cx="16.501" cy="19.563" r="0.291"/>
		<circle fill="#231F20" cx="17.199" cy="19.563" r="0.294"/>
		<circle fill="#231F20" cx="17.896" cy="19.563" r="0.294"/>
		<circle fill="#231F20" cx="18.594" cy="19.563" r="0.292"/>
		<circle fill="#231F20" cx="19.291" cy="19.563" r="0.288"/>
		<circle fill="#231F20" cx="19.989" cy="19.563" r="0.281"/>
		<circle fill="#231F20" cx="20.686" cy="19.563" r="0.269"/>
		<circle fill="#231F20" cx="21.383" cy="19.563" r="0.253"/>
		<circle fill="#231F20" cx="22.081" cy="19.563" r="0.236"/>
		<circle fill="#231F20" cx="22.778" cy="19.563" r="0.215"/>
		<circle fill="#231F20" cx="23.476" cy="19.563" r="0.193"/>
		<circle fill="#231F20" cx="24.173" cy="19.563" r="0.174"/>
		<circle fill="#231F20" cx="24.871" cy="19.563" r="0.159"/>
		<circle fill="#231F20" cx="25.568" cy="19.563" r="0.151"/>
		<circle fill="#231F20" cx="26.266" cy="19.563" r="0.147"/>
		<circle fill="#231F20" cx="26.963" cy="19.563" r="0.155"/>
		<circle fill="#231F20" cx="27.66" cy="19.563" r="0.172"/>
		<circle fill="#231F20" cx="28.358" cy="19.563" r="0.205"/>
		<circle fill="#231F20" cx="29.055" cy="19.563" r="0.253"/>
		<path fill="#231F20" d="M29.753,19.244c-0.177,0-0.319,0.143-0.319,0.318c0,0.177,0.143,0.319,0.319,0.319
			c0.108,0,0.189-0.063,0.247-0.146V19.39C29.942,19.307,29.861,19.244,29.753,19.244z"/>
		<circle fill="#231F20" cx="0.112" cy="20.26" r="0.016"/>
		<circle fill="#231F20" cx="0.809" cy="20.26" r="0.025"/>
		<circle fill="#231F20" cx="1.507" cy="20.26" r="0.035"/>
		<circle fill="#231F20" cx="2.204" cy="20.26" r="0.046"/>
		<circle fill="#231F20" cx="2.902" cy="20.26" r="0.058"/>
		<circle fill="#231F20" cx="3.599" cy="20.26" r="0.072"/>
		<circle fill="#231F20" cx="4.297" cy="20.26" r="0.083"/>
		<circle fill="#231F20" cx="4.994" cy="20.26" r="0.095"/>
		<circle fill="#231F20" cx="5.691" cy="20.26" r="0.108"/>
		<circle fill="#231F20" cx="6.389" cy="20.26" r="0.122"/>
		<circle fill="#231F20" cx="7.086" cy="20.26" r="0.137"/>
		<circle fill="#231F20" cx="7.784" cy="20.26" r="0.151"/>
		<circle fill="#231F20" cx="8.481" cy="20.26" r="0.165"/>
		<circle fill="#231F20" cx="9.179" cy="20.26" r="0.178"/>
		<circle fill="#231F20" cx="9.876" cy="20.26" r="0.192"/>
		<circle fill="#231F20" cx="10.573" cy="20.26" r="0.205"/>
		<circle fill="#231F20" cx="11.271" cy="20.26" r="0.218"/>
		<circle fill="#231F20" cx="11.968" cy="20.26" r="0.23"/>
		<circle fill="#231F20" cx="12.666" cy="20.26" r="0.244"/>
		<circle fill="#231F20" cx="13.363" cy="20.26" r="0.253"/>
		<circle fill="#231F20" cx="14.061" cy="20.26" r="0.265"/>
		<circle fill="#231F20" cx="14.758" cy="20.26" r="0.275"/>
		<circle fill="#231F20" cx="15.456" cy="20.26" r="0.283"/>
		<circle fill="#231F20" cx="16.152" cy="20.26" r="0.289"/>
		<circle fill="#231F20" cx="16.851" cy="20.26" r="0.292"/>
		<circle fill="#231F20" cx="17.548" cy="20.26" r="0.294"/>
		<circle fill="#231F20" cx="18.245" cy="20.26" r="0.294"/>
		<circle fill="#231F20" cx="18.942" cy="20.26" r="0.291"/>
		<circle fill="#231F20" cx="19.64" cy="20.26" r="0.285"/>
		<circle fill="#231F20" cx="20.337" cy="20.26" r="0.275"/>
		<circle fill="#231F20" cx="21.035" cy="20.26" r="0.261"/>
		<circle fill="#231F20" cx="21.732" cy="20.26" r="0.244"/>
		<circle fill="#231F20" cx="22.43" cy="20.26" r="0.224"/>
		<circle fill="#231F20" cx="23.127" cy="20.26" r="0.205"/>
		<circle fill="#231F20" cx="23.824" cy="20.26" r="0.184"/>
		<circle fill="#231F20" cx="24.522" cy="20.26" r="0.167"/>
		<circle fill="#231F20" cx="25.22" cy="20.26" r="0.155"/>
		<circle fill="#231F20" cx="25.917" cy="20.26" r="0.147"/>
		<circle fill="#231F20" cx="26.614" cy="20.26" r="0.149"/>
		<circle fill="#231F20" cx="27.312" cy="20.26" r="0.161"/>
		<circle fill="#231F20" cx="28.009" cy="20.26" r="0.188"/>
		<circle fill="#231F20" cx="28.707" cy="20.26" r="0.226"/>
		<circle fill="#231F20" cx="29.404" cy="20.26" r="0.284"/>
		<path fill="#231F20" d="M29.742,20.26c0,0.163,0.109,0.295,0.258,0.34v-0.679C29.852,19.966,29.742,20.098,29.742,20.26z"/>
		<circle fill="#231F20" cx="0.461" cy="20.958" r="0.019"/>
		<circle fill="#231F20" cx="1.158" cy="20.958" r="0.029"/>
		<circle fill="#231F20" cx="1.855" cy="20.958" r="0.041"/>
		<path fill="#231F20" d="M2.553,20.905c-0.029,0-0.052,0.023-0.052,0.053c0,0.023,0.021,0.035,0.042,0.042h0.02
			c0.021-0.007,0.042-0.019,0.042-0.042C2.605,20.929,2.582,20.905,2.553,20.905z"/>
		<path fill="#231F20" d="M3.25,20.892c-0.037,0-0.066,0.029-0.066,0.066c0,0.023,0.024,0.03,0.042,0.042h0.047
			c0.018-0.012,0.042-0.019,0.042-0.042C3.316,20.921,3.287,20.892,3.25,20.892z"/>
		<path fill="#231F20" d="M3.948,20.88c-0.042,0-0.077,0.035-0.077,0.078c0,0.023,0.026,0.027,0.042,0.042h0.07
			c0.016-0.015,0.042-0.019,0.042-0.042C4.025,20.915,3.991,20.88,3.948,20.88z"/>
		<path fill="#231F20" d="M4.645,20.869c-0.049,0-0.089,0.039-0.089,0.089c0,0.017,0.01,0.028,0.018,0.042h0.143
			c0.008-0.014,0.018-0.025,0.018-0.042C4.734,20.908,4.694,20.869,4.645,20.869z"/>
		<path fill="#231F20" d="M5.343,20.855c-0.057,0-0.103,0.046-0.103,0.103c0,0.017,0.011,0.028,0.018,0.042h0.17
			c0.007-0.014,0.018-0.025,0.018-0.042C5.445,20.901,5.399,20.855,5.343,20.855z"/>
		<path fill="#231F20" d="M6.04,20.842c-0.064,0-0.116,0.052-0.116,0.116c0,0.017,0.012,0.027,0.018,0.042h0.197
			c0.006-0.015,0.018-0.025,0.018-0.042C6.156,20.894,6.104,20.842,6.04,20.842z"/>
		<path fill="#231F20" d="M6.737,20.828c-0.071,0-0.129,0.058-0.129,0.13c0,0.017,0.012,0.027,0.018,0.042H6.85
			c0.005-0.015,0.018-0.025,0.018-0.042C6.867,20.886,6.809,20.828,6.737,20.828z"/>
		<path fill="#231F20" d="M7.435,20.814c-0.079,0-0.143,0.064-0.143,0.144c0,0.017,0.012,0.027,0.018,0.042h0.251
			c0.005-0.015,0.018-0.025,0.018-0.042C7.578,20.879,7.514,20.814,7.435,20.814z"/>
		<path fill="#231F20" d="M8.132,20.801c-0.086,0-0.157,0.07-0.157,0.157c0,0.017,0.013,0.027,0.018,0.042h0.278
			c0.005-0.015,0.018-0.025,0.018-0.042C8.289,20.871,8.219,20.801,8.132,20.801z"/>
		<path fill="#231F20" d="M8.83,20.785c-0.095,0-0.172,0.077-0.172,0.173c0,0.017,0.013,0.027,0.018,0.042h0.309
			c0.004-0.015,0.018-0.025,0.018-0.042C9.002,20.862,8.925,20.785,8.83,20.785z"/>
		<path fill="#231F20" d="M9.527,20.773c-0.102,0-0.184,0.083-0.184,0.185c0,0.017,0.014,0.026,0.018,0.042h0.333
			c0.004-0.016,0.018-0.025,0.018-0.042C9.711,20.856,9.629,20.773,9.527,20.773z"/>
		<path fill="#231F20" d="M10.225,20.761c-0.109,0-0.197,0.088-0.197,0.197c0,0.017,0.014,0.026,0.018,0.042h0.359
			c0.004-0.016,0.018-0.025,0.018-0.042C10.422,20.849,10.333,20.761,10.225,20.761z"/>
		<path fill="#231F20" d="M10.922,20.747c-0.116,0-0.21,0.094-0.21,0.211c0,0.017,0.014,0.026,0.018,0.042h0.386
			c0.004-0.016,0.018-0.025,0.018-0.042C11.133,20.841,11.039,20.747,10.922,20.747z"/>
		<path fill="#231F20" d="M11.62,20.733c-0.124,0-0.225,0.101-0.225,0.225c0,0.017,0.014,0.026,0.018,0.042h0.414
			c0.003-0.016,0.018-0.025,0.018-0.042C11.844,20.834,11.743,20.733,11.62,20.733z"/>
		<path fill="#231F20" d="M12.317,20.722c-0.13,0-0.236,0.105-0.236,0.236c0,0.017,0.014,0.026,0.018,0.042h0.437
			c0.003-0.016,0.018-0.025,0.018-0.042C12.553,20.827,12.447,20.722,12.317,20.722z"/>
		<path fill="#231F20" d="M13.014,20.708c-0.138,0-0.249,0.112-0.249,0.25c0,0.017,0.014,0.026,0.017,0.042h0.464
			c0.003-0.016,0.018-0.025,0.018-0.042C13.264,20.82,13.152,20.708,13.014,20.708z"/>
		<path fill="#231F20" d="M13.712,20.698c-0.143,0-0.259,0.116-0.259,0.26c0,0.017,0.015,0.026,0.018,0.042h0.483
			c0.003-0.016,0.018-0.025,0.018-0.042C13.971,20.814,13.855,20.698,13.712,20.698z"/>
		<path fill="#231F20" d="M14.409,20.688c-0.148,0-0.269,0.121-0.269,0.27c0,0.017,0.014,0.026,0.017,0.042h0.503
			c0.003-0.016,0.018-0.025,0.018-0.042C14.678,20.81,14.558,20.688,14.409,20.688z"/>
		<path fill="#231F20" d="M15.107,20.679c-0.154,0-0.279,0.125-0.279,0.279c0,0.017,0.015,0.026,0.018,0.042h0.522
			c0.003-0.016,0.018-0.025,0.018-0.042C15.385,20.804,15.261,20.679,15.107,20.679z"/>
		<path fill="#231F20" d="M15.804,20.672c-0.158,0-0.286,0.128-0.286,0.286c0,0.017,0.015,0.026,0.017,0.042h0.538
			c0.002-0.016,0.017-0.025,0.017-0.042C16.09,20.8,15.962,20.672,15.804,20.672z"/>
		<path fill="#231F20" d="M16.502,20.668c-0.161,0-0.291,0.13-0.291,0.29c0,0.017,0.016,0.026,0.018,0.042h0.546
			c0.002-0.016,0.018-0.025,0.018-0.042C16.792,20.798,16.662,20.668,16.502,20.668z"/>
		<path fill="#231F20" d="M17.199,20.664c-0.163,0-0.294,0.131-0.294,0.294c0,0.017,0.015,0.026,0.018,0.042h0.553
			c0.002-0.016,0.018-0.025,0.018-0.042C17.493,20.795,17.361,20.664,17.199,20.664z"/>
		<path fill="#231F20" d="M17.896,20.664c-0.162,0-0.294,0.131-0.294,0.294c0,0.017,0.015,0.026,0.018,0.042h0.553
			c0.003-0.016,0.018-0.025,0.018-0.042C18.19,20.795,18.059,20.664,17.896,20.664z"/>
		<path fill="#231F20" d="M18.594,20.666c-0.161,0-0.292,0.131-0.292,0.292c0,0.017,0.015,0.026,0.018,0.042h0.549
			c0.003-0.016,0.018-0.025,0.018-0.042C18.886,20.797,18.755,20.666,18.594,20.666z"/>
		<path fill="#231F20" d="M19.291,20.67c-0.159,0-0.288,0.129-0.288,0.288c0,0.017,0.015,0.026,0.018,0.042h0.541
			c0.003-0.016,0.018-0.025,0.018-0.042C19.579,20.799,19.45,20.67,19.291,20.67z"/>
		<path fill="#231F20" d="M19.988,20.677c-0.154,0-0.28,0.126-0.28,0.281c0,0.017,0.015,0.026,0.018,0.042h0.526
			c0.002-0.016,0.018-0.025,0.018-0.042C20.27,20.803,20.144,20.677,19.988,20.677z"/>
		<path fill="#231F20" d="M20.687,20.688c-0.148,0-0.27,0.121-0.27,0.27c0,0.017,0.015,0.026,0.018,0.042h0.503
			c0.003-0.016,0.018-0.025,0.018-0.042C20.955,20.81,20.835,20.688,20.687,20.688z"/>
		<path fill="#231F20" d="M21.384,20.704c-0.14,0-0.254,0.113-0.254,0.254c0,0.017,0.015,0.026,0.018,0.042h0.472
			c0.003-0.016,0.018-0.025,0.018-0.042C21.637,20.817,21.523,20.704,21.384,20.704z"/>
		<path fill="#231F20" d="M22.081,20.722c-0.13,0-0.236,0.105-0.236,0.236c0,0.017,0.015,0.026,0.018,0.042H22.3
			c0.003-0.016,0.018-0.025,0.018-0.042C22.317,20.827,22.211,20.722,22.081,20.722z"/>
		<path fill="#231F20" d="M22.778,20.743c-0.118,0-0.215,0.096-0.215,0.215c0,0.017,0.015,0.026,0.018,0.042h0.395
			c0.004-0.016,0.018-0.025,0.018-0.042C22.993,20.839,22.897,20.743,22.778,20.743z"/>
		<path fill="#231F20" d="M23.476,20.765c-0.106,0-0.193,0.086-0.193,0.193c0,0.017,0.014,0.026,0.018,0.042h0.352
			c0.004-0.016,0.018-0.025,0.018-0.042C23.669,20.851,23.583,20.765,23.476,20.765z"/>
		<path fill="#231F20" d="M24.173,20.783c-0.096,0-0.174,0.078-0.174,0.175c0,0.017,0.014,0.027,0.018,0.042h0.313
			c0.004-0.015,0.018-0.025,0.018-0.042C24.348,20.861,24.27,20.783,24.173,20.783z"/>
		<path fill="#231F20" d="M24.871,20.799c-0.088,0-0.159,0.071-0.159,0.159c0,0.017,0.013,0.027,0.018,0.042h0.282
			c0.005-0.015,0.018-0.025,0.018-0.042C25.029,20.87,24.958,20.799,24.871,20.799z"/>
		<path fill="#231F20" d="M25.568,20.807c-0.083,0-0.151,0.067-0.151,0.151c0,0.017,0.013,0.027,0.018,0.042h0.267
			c0.005-0.015,0.018-0.025,0.018-0.042C25.719,20.874,25.651,20.807,25.568,20.807z"/>
		<path fill="#231F20" d="M26.266,20.811c-0.081,0-0.147,0.066-0.147,0.147c0,0.017,0.013,0.027,0.018,0.042h0.259
			c0.006-0.015,0.019-0.025,0.019-0.042C26.413,20.877,26.347,20.811,26.266,20.811z"/>
		<path fill="#231F20" d="M26.963,20.803c-0.085,0-0.154,0.069-0.154,0.155c0,0.017,0.013,0.027,0.018,0.042h0.274
			c0.005-0.015,0.018-0.025,0.018-0.042C27.118,20.872,27.049,20.803,26.963,20.803z"/>
		<path fill="#231F20" d="M27.66,20.785c-0.095,0-0.172,0.077-0.172,0.173c0,0.017,0.014,0.027,0.018,0.042h0.31
			c0.004-0.015,0.018-0.025,0.018-0.042C27.833,20.862,27.756,20.785,27.66,20.785z"/>
		<path fill="#231F20" d="M28.357,20.753c-0.112,0-0.204,0.092-0.204,0.205c0,0.017,0.014,0.026,0.018,0.042h0.374
			c0.004-0.016,0.018-0.025,0.018-0.042C28.563,20.845,28.471,20.753,28.357,20.753z"/>
		<path fill="#231F20" d="M29.056,20.704c-0.141,0-0.254,0.113-0.254,0.254c0,0.017,0.015,0.026,0.018,0.042h0.472
			c0.003-0.016,0.018-0.025,0.018-0.042C29.309,20.817,29.195,20.704,29.056,20.704z"/>
		<path fill="#231F20" d="M29.753,20.639c-0.177,0-0.319,0.143-0.319,0.319c0,0.017,0.015,0.026,0.018,0.042H30v-0.216
			C29.942,20.701,29.861,20.639,29.753,20.639z"/>
	</g>
</g>
</svg>
